<svg width="596" height="459" viewBox="0 0 596 459" fill="none" xmlns="http://www.w3.org/2000/svg">
<path d="M374.861 363.872L360.264 338.732C356.62 332.46 354.687 329.315 352.816 326.274C350.942 323.225 349.003 320.073 345.348 313.78C341.704 307.509 339.869 304.372 338.036 301.243C336.196 298.1 334.36 294.963 330.702 288.666C327.056 282.389 325.086 279.263 323.18 276.241C321.27 273.211 319.294 270.079 315.637 263.784C311.979 257.485 310.318 254.171 308.712 250.965C307.114 247.774 305.461 244.474 301.818 238.204C298.175 231.934 296.118 228.863 294.129 225.893C292.129 222.908 290.062 219.822 286.403 213.523C282.751 207.237 280.962 204.072 279.173 200.909C277.386 197.747 275.597 194.587 271.949 188.305C269.471 184.113 267.229 179.79 265.234 175.356C263.254 170.954 261.029 166.663 258.569 162.502C256.169 158.304 253.558 154.228 250.746 150.287C247.916 146.319 245.288 142.215 242.871 137.989C239.213 131.691 237.516 128.399 235.875 125.214C234.239 122.041 232.548 118.761 228.903 112.486C225.253 106.204 223.355 103.034 221.518 99.9697C219.679 96.9014 217.779 93.7297 214.125 87.4399C210.47 81.1482 208.741 77.876 207.068 74.7117C205.399 71.5549 203.673 68.2916 200.025 62.0116C196.377 55.7323 194.414 52.6009 192.515 49.5726C190.612 46.5378 188.644 43.3985 184.986 37.103C181.334 30.8151 179.536 27.5856 177.796 24.4623C176.058 21.3439 174.262 18.118 170.614 11.838C166.952 5.53571 165.145 2.37967 163.335 -0.782253C161.531 -3.93271 159.725 -7.08705 156.078 -13.3643C152.425 -19.6519 150.467 -22.7906 148.573 -25.8261C146.675 -28.8683 144.712 -32.0137 141.052 -38.3141C137.39 -44.6192 135.686 -47.9139 134.039 -51.0996C132.397 -54.2746 130.7 -57.5575 127.049 -63.8405L127.986 -64.3675C131.649 -58.0622 133.352 -54.7677 134.999 -51.582C136.641 -48.4069 138.338 -45.1239 141.989 -38.8409C145.64 -32.556 147.598 -29.4183 149.491 -26.3827C151.389 -23.3407 153.353 -20.1944 157.014 -13.8911C160.661 -7.61194 162.469 -4.45569 164.273 -1.30439C166.083 1.85669 167.89 5.01168 171.55 11.311C175.202 17.5991 177.002 20.8284 178.741 23.9519C180.478 27.0703 182.274 30.2962 185.923 36.5762C189.57 42.8553 191.534 45.9867 193.432 49.0151C195.336 52.0501 197.303 55.1893 200.961 61.4846C204.619 67.7823 206.35 71.0551 208.025 74.2214C209.692 77.3762 211.417 80.6385 215.062 86.9129C218.712 93.1948 220.61 96.365 222.446 99.4295C224.285 102.498 226.186 105.67 229.839 111.959C233.497 118.257 235.195 121.549 236.836 124.734C238.471 127.907 240.162 131.188 243.808 137.462C246.208 141.661 248.819 145.739 251.632 149.681C254.462 153.647 257.09 157.75 259.505 161.975C261.982 166.165 264.222 170.487 266.217 174.919C268.199 179.322 270.425 183.615 272.885 187.778C276.537 194.063 278.326 197.228 280.115 200.392C281.902 203.553 283.69 206.714 287.339 212.996C290.982 219.265 293.038 222.336 295.028 225.307C297.027 228.291 299.094 231.377 302.754 237.677C306.413 243.976 308.073 247.291 309.679 250.496C311.278 253.687 312.931 256.986 316.574 263.257C320.219 269.533 322.19 272.659 324.095 275.681C326.006 278.712 327.982 281.844 331.638 288.139C335.295 294.434 337.131 297.57 338.971 300.712C340.803 303.843 342.639 306.979 346.284 313.253C349.933 319.534 351.868 322.68 353.739 325.724C355.612 328.77 357.549 331.921 361.2 338.205L375.798 363.345L374.861 363.872Z" fill="#3BBFEE"/>
<path d="M363.932 370.022C360.288 363.749 358.327 360.62 356.429 357.595C354.527 354.56 352.559 351.421 348.903 345.126C345.246 338.832 343.433 335.61 341.679 332.494C339.93 329.385 338.121 326.168 334.477 319.897C330.833 313.625 328.973 310.504 327.114 307.388C325.249 304.261 323.387 301.138 319.729 294.841C316.077 288.555 314.264 285.335 312.509 282.22C310.757 279.107 308.944 275.888 305.293 269.603C301.642 263.318 299.832 260.166 298.022 257.014C296.212 253.864 294.403 250.714 290.752 244.43C287.107 238.154 285.123 235.038 283.204 232.025C281.279 229.002 279.288 225.876 275.632 219.582C271.978 213.293 270.186 210.131 268.393 206.967C266.603 203.809 264.813 200.649 261.165 194.37C257.523 188.102 255.576 184.968 253.692 181.937C251.804 178.897 249.851 175.754 246.197 169.464C242.548 163.183 240.704 160.053 238.86 156.922C237.015 153.791 235.171 150.659 231.519 144.374C227.861 138.078 226.101 134.823 224.398 131.675C222.701 128.535 220.945 125.288 217.3 119.013C213.64 112.714 211.944 109.419 210.304 106.233C208.671 103.059 206.982 99.7783 203.339 93.5066C200.946 89.3013 198.278 85.2538 195.352 81.3899C192.401 77.4937 189.711 73.4124 187.298 69.1722C183.638 62.8728 181.948 59.5749 180.314 56.3848C178.686 53.2073 177.001 49.922 173.356 43.6458C169.709 37.3696 167.737 34.2459 165.83 31.2243C163.918 28.196 161.94 25.065 158.285 18.7733C155.809 14.5776 153.548 10.2619 151.512 5.84268C149.488 1.45008 147.24 -2.83963 144.778 -7.00999C142.378 -11.2187 139.73 -15.2848 136.846 -19.1871C133.941 -23.1178 131.272 -27.2138 128.855 -31.4536C125.188 -37.7664 123.591 -41.126 122.047 -44.3761C120.513 -47.6055 118.925 -50.9454 115.279 -57.2207L116.216 -57.7477C119.883 -51.4348 121.48 -48.0742 123.024 -44.8253C124.559 -41.5948 126.146 -38.2557 129.792 -31.9804C132.19 -27.7723 134.838 -23.7071 137.722 -19.8063C140.628 -15.8744 143.297 -11.7774 145.715 -7.53678C148.192 -3.33979 150.453 0.97712 152.491 5.39745C154.515 9.78849 156.761 14.0769 159.221 18.2463C162.867 24.5206 164.838 27.6434 166.745 30.663C168.658 33.6921 170.636 36.8243 174.292 43.1188C177.952 49.4182 179.642 52.7173 181.277 55.9071C182.905 59.0847 184.589 62.37 188.234 68.6454C190.627 72.8506 193.296 76.8982 196.222 80.7622C199.172 84.6583 201.862 88.7396 204.275 92.9798C207.932 99.2743 209.627 102.567 211.266 105.752C212.9 108.927 214.589 112.209 218.236 118.486C221.89 124.775 223.649 128.029 225.35 131.175C227.05 134.317 228.805 137.564 232.456 143.847C236.104 150.129 237.948 153.258 239.792 156.389C241.637 159.52 243.482 162.652 247.133 168.937C250.779 175.213 252.727 178.349 254.611 181.381C256.5 184.42 258.452 187.561 262.102 193.844C265.751 200.127 267.544 203.289 269.334 206.449C271.126 209.611 272.916 212.77 276.568 219.055C280.213 225.33 282.197 228.447 284.116 231.46C286.041 234.482 288.032 237.608 291.689 243.903C295.339 250.188 297.149 253.339 298.96 256.492C300.77 259.641 302.579 262.792 306.229 269.076C309.884 275.366 311.699 278.589 313.453 281.705C315.205 284.816 317.017 288.034 320.665 294.314C324.319 300.605 326.18 303.726 328.043 306.85C329.903 309.969 331.766 313.092 335.414 319.37C339.06 325.647 340.871 328.866 342.623 331.979C344.374 335.092 346.186 338.311 349.839 344.599C353.486 350.878 355.449 354.009 357.347 357.036C359.248 360.069 361.215 363.205 364.869 369.495L363.932 370.022Z" fill="#3BBFEE"/>
<path d="M351.856 376.815C348.213 370.543 346.356 367.42 344.503 364.302C342.643 361.171 340.785 358.046 337.127 351.748C333.471 345.455 331.697 342.208 329.982 339.069C328.272 335.938 326.503 332.702 322.86 326.43C319.221 320.164 317.113 317.124 315.074 314.184C313.023 311.226 310.903 308.168 307.241 301.865C303.579 295.562 301.986 292.206 300.445 288.96C298.914 285.734 297.33 282.397 293.688 276.13C290.043 269.855 288.124 266.702 286.268 263.651C284.407 260.594 282.484 257.432 278.827 251.138C275.183 244.863 273.211 241.74 271.305 238.719C269.393 235.689 267.416 232.555 263.76 226.261C260.103 219.966 258.371 216.694 256.697 213.53C255.029 210.377 253.304 207.115 249.66 200.843C246.016 194.57 244.076 191.429 242.201 188.392C240.321 185.349 238.378 182.202 234.726 175.915C231.07 169.623 229.342 166.351 227.67 163.186C226.004 160.032 224.28 156.77 220.636 150.496C216.978 144.201 215.17 140.973 213.422 137.852C211.677 134.738 209.874 131.517 206.228 125.242C202.588 118.976 200.472 115.939 198.425 113.003C196.366 110.05 194.236 106.994 190.574 100.689C186.922 94.4024 185.022 91.2313 183.186 88.1658C181.348 85.0986 179.448 81.9265 175.797 75.6426C172.142 69.3509 170.345 66.1178 168.608 62.9911C166.872 59.8691 165.078 56.6398 161.428 50.3569C157.772 44.0622 156.059 40.7796 154.404 37.6049C152.754 34.4408 151.047 31.1691 147.403 24.8955C143.757 18.6194 141.713 15.5355 139.736 12.5534C137.751 9.55897 135.699 6.4628 132.037 0.160658C128.388 -6.12248 126.593 -9.29026 124.803 -12.4504C123.006 -15.6222 121.212 -18.7869 117.55 -25.0923C113.883 -31.404 112.283 -34.7631 110.737 -38.0106C109.2 -41.2395 107.609 -44.5778 103.964 -50.8531L104.9 -51.3801C108.568 -45.0672 110.167 -41.7093 111.713 -38.4607C113.251 -35.2329 114.841 -31.8944 118.486 -25.6191C122.152 -19.3101 123.946 -16.1421 125.744 -12.9686C127.533 -9.80942 129.326 -6.6444 132.974 -0.36613C136.619 5.90812 138.662 8.99084 140.638 11.9731C142.624 14.9674 144.677 18.0646 148.339 24.3687C151.996 30.6633 153.707 33.9459 155.364 37.1206C157.013 40.2847 158.72 43.5565 162.364 49.8299C166.019 56.1216 167.816 59.3546 169.554 62.4816C171.289 65.6034 173.083 68.8329 176.733 75.1158C180.38 81.3929 182.278 84.5612 184.113 87.6256C185.953 90.695 187.854 93.8688 191.51 100.162C195.151 106.429 197.267 109.465 199.313 112.402C201.372 115.355 203.502 118.41 207.165 124.715C210.813 130.997 212.62 134.222 214.366 137.338C216.112 140.456 217.919 143.681 221.572 149.969C225.227 156.261 226.955 159.532 228.626 162.697C230.294 165.852 232.017 169.113 235.662 175.389C239.306 181.662 241.246 184.803 243.122 187.84C245.001 190.883 246.944 194.029 250.596 200.316C254.25 206.607 255.981 209.877 257.654 213.04C259.322 216.195 261.049 219.457 264.696 225.734C268.342 232.011 270.314 235.136 272.221 238.158C274.132 241.187 276.109 244.319 279.764 250.611C283.414 256.896 285.334 260.052 287.192 263.105C289.051 266.16 290.973 269.319 294.625 275.603C298.287 281.908 299.881 285.265 301.423 288.511C302.954 291.737 304.538 295.072 308.177 301.338C311.816 307.604 313.925 310.644 315.963 313.584C318.014 316.542 320.134 319.6 323.797 325.903C327.446 332.186 329.218 335.43 330.931 338.566C332.644 341.7 334.413 344.94 338.063 351.221C341.718 357.514 343.575 360.638 345.433 363.766C347.288 366.886 349.145 370.012 352.792 376.288L351.856 376.815Z" fill="#3BBFEE"/>
<path d="M339.749 383.625C336.093 377.331 334.325 374.081 332.615 370.938C330.909 367.804 329.146 364.562 325.501 358.288C321.85 352.003 320.039 348.782 318.287 345.667C316.537 342.555 314.728 339.337 311.079 333.058C307.421 326.761 305.738 323.46 304.11 320.269C302.487 317.09 300.811 313.803 297.167 307.531C294.772 303.327 292.122 299.27 289.23 295.382C286.317 291.463 283.645 287.374 281.231 283.138C277.575 276.845 275.85 273.569 274.183 270.402C272.52 267.244 270.801 263.979 267.155 257.703C263.486 251.386 261.671 248.237 259.846 245.073C258.041 241.941 256.227 238.793 252.595 232.54C248.937 226.244 247.213 222.969 245.544 219.801C243.882 216.644 242.163 213.38 238.52 207.109C234.878 200.84 232.921 197.712 231.028 194.686C229.13 191.652 227.167 188.515 223.512 182.224C219.856 175.931 218.139 172.651 216.479 169.481C214.823 166.32 213.111 163.052 209.467 156.778C205.821 150.502 203.868 147.367 201.978 144.335C200.084 141.294 198.126 138.151 194.469 131.856C190.826 125.584 188.822 122.48 186.885 119.477C184.941 116.463 182.931 113.347 179.271 107.047C175.615 100.754 173.863 97.4949 172.17 94.3425C170.48 91.1981 168.731 87.946 165.084 81.6677C161.429 75.3752 159.659 72.1258 157.947 68.9839C156.238 65.848 154.471 62.6056 150.821 56.3226C147.181 50.0569 145.067 47.0211 143.021 44.0847C140.964 41.1311 138.837 38.0774 135.176 31.7743C131.521 25.4837 129.711 22.2579 127.961 19.1385C126.212 16.0211 124.403 12.7987 120.749 6.50979L106.121 -18.6639C102.461 -24.9632 100.673 -28.2053 98.9441 -31.3409C97.2178 -34.4717 95.4326 -37.7101 91.7793 -43.9988L92.7156 -44.5258C96.3751 -38.2263 98.1634 -34.9843 99.8925 -31.8486C101.619 -28.7178 103.404 -25.4794 107.058 -19.1907L121.686 5.98301C125.342 12.2775 127.153 15.5051 128.904 18.6253C130.652 21.7409 132.461 24.9637 136.112 31.2473C139.75 37.5113 141.865 40.5468 143.91 43.4824C145.967 46.4368 148.095 49.4915 151.757 55.7956C155.414 62.0902 157.185 65.3393 158.897 68.4822C160.605 71.6183 162.372 74.8609 166.021 81.1409C169.677 87.4345 171.429 90.6934 173.122 93.8456C174.812 96.9902 176.561 100.242 180.208 106.52C183.854 112.798 185.858 115.903 187.795 118.907C189.739 121.919 191.749 125.035 195.406 131.33C199.054 137.61 201.007 140.745 202.898 143.778C204.79 146.818 206.749 149.96 210.404 156.251C214.06 162.544 215.776 165.824 217.437 168.994C219.092 172.155 220.804 175.423 224.449 181.697C228.094 187.972 230.052 191.102 231.946 194.128C233.844 197.161 235.805 200.297 239.457 206.582C243.11 212.872 244.835 216.146 246.501 219.312C248.165 222.47 249.885 225.736 253.532 232.014C257.163 238.267 258.978 241.415 260.784 244.548C262.608 247.712 264.422 250.86 268.092 257.177C271.748 263.47 273.472 266.745 275.14 269.913C276.803 273.071 278.522 276.336 282.168 282.611C284.562 286.815 287.213 290.872 290.105 294.76C293.018 298.679 295.689 302.768 298.104 307.004C301.761 313.3 303.445 316.602 305.074 319.793C306.695 322.972 308.372 326.259 312.016 332.531C315.667 338.817 317.478 342.037 319.23 345.152C320.98 348.264 322.79 351.482 326.438 357.761C330.09 364.048 331.856 367.296 333.565 370.437C335.272 373.574 337.036 376.817 340.686 383.099L339.749 383.625Z" fill="#3BBFEE"/>
<path d="M328.66 389.863C325.003 383.57 323.251 380.311 321.556 377.159C319.866 374.016 318.118 370.766 314.473 364.492C310.772 358.121 308.951 354.978 307.104 351.79C305.309 348.69 303.488 345.547 299.89 339.352C296.235 333.061 294.469 329.811 292.76 326.669C291.055 323.533 289.291 320.29 285.644 314.012C283.25 309.809 280.593 305.755 277.69 301.876C274.763 297.966 272.085 293.88 269.671 289.642C267.196 285.449 264.936 281.137 262.898 276.722C260.873 272.335 258.627 268.05 256.168 263.884C252.525 257.614 250.473 254.539 248.489 251.567C246.495 248.579 244.433 245.491 240.774 239.192C237.126 232.912 235.196 229.763 233.33 226.717C231.46 223.666 229.528 220.512 225.875 214.225C222.219 207.931 220.423 204.774 218.625 201.61C216.834 198.46 215.04 195.305 211.4 189.039C207.742 182.743 206.063 179.441 204.439 176.247C202.821 173.067 201.149 169.779 197.506 163.508C193.852 157.217 192.06 153.98 190.328 150.851C188.599 147.727 186.811 144.498 183.162 138.218C179.512 131.934 177.601 128.771 175.754 125.712C173.905 122.651 171.993 119.485 168.34 113.197C164.698 106.927 162.668 103.837 160.704 100.851C158.733 97.8511 156.694 94.7495 153.035 88.448C149.372 82.144 147.744 78.8066 146.171 75.5796C144.605 72.3704 142.986 69.0508 139.343 62.7802C135.69 56.4905 133.912 53.249 132.191 50.114C130.475 46.9845 128.699 43.7477 125.051 37.4696C121.408 31.1982 119.282 28.1656 117.225 25.2322C115.156 22.2819 113.016 19.2314 109.352 12.9233C105.722 6.67505 103.889 3.5306 102.069 0.408323C100.223 -2.75802 98.3908 -5.90246 94.7082 -12.2412C91.0408 -18.5541 89.4287 -21.9056 87.8699 -25.1467C86.321 -28.3684 84.719 -31.6995 81.0735 -37.9748L82.0099 -38.5016C85.6756 -32.1918 87.2865 -28.841 88.8453 -25.5999C90.3955 -22.3774 91.9977 -19.0452 95.6445 -12.7682C99.3259 -6.43011 101.158 -3.28677 103.004 -0.120383C104.824 3.0019 106.657 6.14634 110.288 12.3965C113.929 18.6641 116.056 21.6956 118.111 24.6282C120.182 27.5794 122.321 30.6308 125.987 36.9429C129.641 43.2326 131.419 46.4741 133.14 49.6091C134.856 52.7385 136.632 55.9753 140.28 62.2534C143.941 68.5577 145.568 71.894 147.143 75.1208C148.708 78.3313 150.327 81.6498 153.971 87.9212C157.615 94.1957 159.645 97.286 161.609 100.273C163.58 103.272 165.619 106.373 169.277 112.671C172.924 118.95 174.833 122.112 176.68 125.169C178.53 128.232 180.443 131.399 184.099 137.691C187.752 143.98 189.543 147.215 191.274 150.343C193.005 153.468 194.793 156.698 198.443 162.981C202.1 169.277 203.78 172.579 205.404 175.773C207.021 178.953 208.694 182.241 212.336 188.512C215.979 194.782 217.774 197.939 219.566 201.092C221.363 204.253 223.157 207.408 226.811 213.698C230.457 219.974 232.386 223.122 234.252 226.168C236.123 229.219 238.055 232.373 241.71 238.665C245.352 244.935 247.405 248.01 249.389 250.982C251.383 253.97 253.445 257.058 257.104 263.357C259.579 267.55 261.839 271.862 263.877 276.277C265.902 280.664 268.148 284.949 270.607 289.115C273.002 293.319 275.658 297.372 278.562 301.251C281.489 305.162 284.167 309.248 286.581 313.485C290.236 319.776 292.001 323.026 293.711 326.168C295.415 329.304 297.179 332.547 300.826 338.825C304.424 345.02 306.245 348.163 308.041 351.263C309.888 354.451 311.708 357.594 315.409 363.965C319.063 370.254 320.814 373.512 322.508 376.662C324.2 379.806 325.948 383.057 329.596 389.336L328.66 389.863Z" fill="#3BBFEE"/>
<path d="M317.609 396.083C313.96 389.802 312.097 386.681 310.235 383.562C308.373 380.44 306.509 377.318 302.855 371.03C299.208 364.75 297.35 361.629 295.493 358.508C293.634 355.384 291.775 352.26 288.123 345.975C284.475 339.695 282.67 336.539 280.867 333.386C279.062 330.231 277.258 327.077 273.605 320.788C269.951 314.498 268.158 311.265 266.424 308.137C264.692 305.014 262.901 301.785 259.253 295.504C255.613 289.239 253.488 286.209 251.433 283.28C249.365 280.331 247.227 277.282 243.564 270.977C239.902 264.673 238.317 261.312 236.785 258.062C235.261 254.832 233.686 251.491 230.047 245.226C226.398 238.946 224.498 235.779 222.66 232.717C220.819 229.651 218.915 226.481 215.263 220.194C211.621 213.925 209.654 210.803 207.752 207.783C205.844 204.754 203.872 201.622 200.217 195.33C196.56 189.035 194.772 185.871 192.982 182.702C191.199 179.545 189.412 176.383 185.77 170.111C182.118 163.825 180.317 160.666 178.516 157.508C176.717 154.351 174.917 151.195 171.266 144.911C167.602 138.604 165.793 135.451 163.978 132.288C162.175 129.146 160.367 125.994 156.728 119.729C153.073 113.436 151.311 110.182 149.608 107.036C147.908 103.896 146.151 100.65 142.503 94.3707C138.846 88.0771 137.047 84.8454 135.307 81.72C133.569 78.5997 131.771 75.3729 128.123 69.0908C124.474 62.8097 122.613 59.6903 120.751 56.5699C118.888 53.4476 117.025 50.3242 113.372 44.0373C109.73 37.768 107.603 34.7354 105.546 31.8032C103.475 28.853 101.334 25.8016 97.6687 19.4927C95.1894 15.2941 92.9318 10.9722 90.905 6.54456C88.8896 2.14454 86.6454 -2.15057 84.1816 -6.32352C80.5312 -12.6076 78.5317 -15.7223 76.5991 -18.7331C74.6594 -21.7545 72.655 -24.8779 68.9928 -31.181L69.9292 -31.708C73.579 -25.426 75.5773 -22.3119 77.5099 -19.3011C79.4498 -16.2799 81.455 -13.1567 85.118 -6.85031C87.5979 -2.65036 89.8564 1.67269 91.8844 6.10144C93.8986 10.5004 96.1418 14.7943 98.6051 18.9659C102.247 25.2344 104.374 28.2667 106.431 31.1982C108.502 34.1494 110.643 37.2006 114.309 43.5106C117.957 49.7917 119.819 52.911 121.68 56.0317C123.543 59.154 125.406 62.2772 129.059 68.564C132.712 74.8538 134.511 78.0844 136.252 81.2098C137.99 84.3311 139.787 87.5579 143.439 93.8439C147.094 100.136 148.856 103.391 150.559 106.537C152.259 109.677 154.016 112.923 157.664 119.202C161.304 125.469 163.114 128.623 164.917 131.766C166.731 134.927 168.539 138.079 172.202 144.384C175.854 150.671 177.655 153.829 179.456 156.988C181.255 160.144 183.055 163.301 186.706 169.585C190.352 175.861 192.14 179.026 193.925 182.186C195.713 185.351 197.499 188.514 201.153 194.803C204.797 201.078 206.766 204.202 208.669 207.223C210.575 210.25 212.548 213.381 216.2 219.667C219.848 225.947 221.749 229.114 223.587 232.176C225.428 235.241 227.33 238.412 230.983 244.699C234.646 251.003 236.23 254.365 237.762 257.615C239.286 260.845 240.861 264.185 244.501 270.451C248.14 276.715 250.265 279.745 252.32 282.675C254.388 285.623 256.527 288.673 260.189 294.977C263.843 301.267 265.636 304.5 267.37 307.628C269.103 310.751 270.893 313.98 274.541 320.261C278.196 326.553 280.001 329.708 281.807 332.865C283.608 336.016 285.413 339.17 289.06 345.448C292.707 351.728 294.565 354.849 296.423 357.97C298.282 361.094 300.14 364.218 303.792 370.503C307.441 376.784 309.303 379.905 311.165 383.024C313.028 386.146 314.892 389.268 318.545 395.556L317.609 396.083Z" fill="#3BBFEE"/>
<path d="M305.396 402.951C301.738 396.654 300.083 393.337 298.482 390.13C296.889 386.936 295.24 383.633 291.597 377.361C287.954 371.091 285.937 367.996 283.986 365.003C282.028 361.999 280.004 358.893 276.347 352.598C272.689 346.3 271.02 342.99 269.407 339.788C267.802 336.601 266.142 333.306 262.498 327.034C260.098 322.834 257.482 318.758 254.658 314.823C251.816 310.86 249.182 306.756 246.765 302.528C243.111 296.237 241.343 292.988 239.633 289.847C237.926 286.712 236.161 283.47 232.514 277.192C228.865 270.91 227.064 267.753 225.265 264.598C223.463 261.44 221.664 258.285 218.011 251.997C214.357 245.707 212.605 242.449 210.909 239.3C209.218 236.156 207.47 232.906 203.823 226.629C200.174 220.347 198.322 217.224 196.469 214.099C194.617 210.976 192.763 207.851 189.116 201.574C185.466 195.29 183.692 192.048 181.975 188.912C180.261 185.781 178.488 182.543 174.838 176.261C172.438 172.06 169.823 167.982 167.004 164.042C164.168 160.077 161.536 155.972 159.119 151.745C156.638 147.55 154.399 143.221 152.412 138.779C150.438 134.368 148.215 130.07 145.752 125.904C142.103 119.622 140.196 116.458 138.352 113.398C136.505 110.333 134.596 107.165 130.942 100.875C127.301 94.6073 125.186 91.5696 123.14 88.6321C121.083 85.6765 118.955 82.6199 115.291 76.3118C112.809 72.1166 110.577 67.7832 108.605 63.3335C106.649 58.9171 104.435 54.6163 101.972 50.4531C98.3197 44.1663 96.4214 40.995 94.5845 37.9276C92.7462 34.8573 90.8459 31.682 87.1897 25.3884C83.5315 19.0899 81.6759 15.96 79.8174 12.8263C77.9624 9.69857 76.1051 6.56576 72.4518 0.277071C68.7988 -6.01081 66.8633 -9.16293 64.9922 -12.2119C63.1171 -15.2664 61.1774 -18.4241 57.5179 -24.7234L58.4543 -25.2504C62.1073 -18.9625 64.043 -15.8105 65.9138 -12.7615C67.7889 -9.70694 69.7286 -6.54927 73.3881 -0.249922C77.0384 6.03408 78.894 9.16392 80.7481 12.291C82.6078 15.4266 84.4648 18.5582 88.1261 24.8616C91.7781 31.1485 93.6762 34.3196 95.5131 37.3872C97.3517 40.4576 99.2516 43.6327 102.908 49.9263C105.389 54.1203 107.621 58.4529 109.591 62.9018C111.547 67.3192 113.763 71.6209 116.227 75.785C119.868 82.0547 121.983 85.0924 124.029 88.031C126.088 90.9862 128.214 94.0422 131.878 100.348C135.527 106.63 137.434 109.795 139.278 112.855C141.125 115.919 143.033 119.088 146.688 125.377C149.169 129.572 151.408 133.901 153.395 138.344C155.368 142.754 157.592 147.053 160.055 151.218C162.456 155.419 165.071 159.497 167.89 163.436C170.726 167.402 173.358 171.507 175.775 175.734C179.431 182.026 181.207 185.27 182.924 188.408C184.638 191.538 186.408 194.773 190.053 201.047C193.696 207.319 195.549 210.442 197.399 213.563C199.255 216.69 201.107 219.815 204.76 226.102C208.415 232.394 210.167 235.652 211.863 238.803C213.554 241.945 215.302 245.195 218.947 251.47C222.602 257.76 224.402 260.918 226.205 264.078C228.003 267.23 229.804 270.387 233.451 276.665C237.105 282.956 238.873 286.204 240.583 289.345C242.29 292.481 244.054 295.723 247.702 302.001C250.102 306.201 252.719 310.278 255.543 314.215C258.384 318.177 261.019 322.28 263.435 326.508C267.093 332.805 268.761 336.115 270.374 339.317C271.98 342.504 273.64 345.8 277.283 352.071C280.926 358.341 282.943 361.436 284.894 364.429C286.852 367.434 288.877 370.54 292.533 376.834C296.193 383.135 297.849 386.452 299.45 389.662C301.043 392.855 302.691 396.156 306.332 402.424L305.396 402.951Z" fill="#3BBFEE"/>
<path d="M294.26 409.216C290.629 402.964 288.79 399.832 286.959 396.713C285.109 393.563 283.269 390.429 279.599 384.111C275.941 377.814 274.292 374.494 272.697 371.282C271.111 368.086 269.47 364.782 265.828 358.514C262.187 352.246 260.101 349.191 258.084 346.237C256.057 343.268 253.961 340.198 250.3 333.898C246.648 327.61 244.886 324.36 243.181 321.215C241.479 318.076 239.72 314.829 236.068 308.545C232.415 302.254 230.631 299.014 228.908 295.88C227.186 292.753 225.407 289.519 221.76 283.241C218.104 276.948 216.295 273.796 214.483 270.64C212.675 267.493 210.865 264.343 207.22 258.067C203.574 251.791 201.612 248.663 199.714 245.637C197.812 242.604 195.843 239.467 192.189 233.175C188.517 226.855 186.697 223.711 184.867 220.547C183.061 217.425 181.241 214.282 177.617 208.043C173.972 201.767 172.031 198.624 170.155 195.586C168.275 192.541 166.332 189.393 162.677 183.103C159.027 176.82 157.167 173.699 155.305 170.578C153.442 167.454 151.579 164.331 147.926 158.042C144.273 151.754 142.42 148.628 140.567 145.499C138.714 142.373 136.86 139.244 133.21 132.962C129.556 126.672 127.759 123.44 126.021 120.314C124.286 117.192 122.492 113.965 118.842 107.683C115.187 101.391 113.388 98.1606 111.648 95.0352C109.909 91.915 108.112 88.6882 104.462 82.4041C100.803 76.1059 99.1216 72.8041 97.4954 69.6106C95.8768 66.4306 94.2028 63.1437 90.5601 56.8731C86.9177 50.6027 84.8162 47.5562 82.7838 44.6091C80.7388 41.6451 78.6242 38.5796 74.9597 32.2705C71.2986 25.9684 69.5016 22.7299 67.7633 19.5979C66.0284 16.4727 64.2359 13.241 60.5841 6.95507C56.9216 0.651043 55.1814 -2.62237 53.4994 -5.78741C51.8209 -8.94353 50.0868 -12.2063 46.4367 -18.4892L47.3732 -19.0163C51.0329 -12.7159 52.7717 -9.44417 54.4546 -6.28057C56.1321 -3.12322 57.8675 0.140616 61.5205 6.42829C65.1769 12.7229 66.9727 15.9593 68.7096 19.0896C70.4459 22.2165 72.2398 25.4501 75.896 31.7437C79.5401 38.016 81.6421 41.0646 83.6744 44.0117C85.719 46.9747 87.8326 50.0393 91.4965 56.3463C95.1531 62.6407 96.8343 65.9425 98.4603 69.1349C100.079 72.315 101.754 75.6038 105.399 81.8774C109.053 88.1691 110.852 91.3997 112.592 94.525C114.331 97.6453 116.128 100.873 119.778 107.156C123.432 113.446 125.229 116.678 126.967 119.804C128.702 122.925 130.496 126.153 134.146 132.435C137.793 138.713 139.646 141.839 141.497 144.963C143.353 148.094 145.206 151.222 148.862 157.515C152.512 163.798 154.374 166.919 156.234 170.04C158.097 173.164 159.96 176.288 163.614 182.576C167.259 188.853 169.2 191.996 171.076 195.034C172.956 198.078 174.899 201.227 178.554 207.517C182.178 213.755 183.997 216.899 185.804 220.021C187.634 223.185 189.453 226.328 193.125 232.648C196.771 238.923 198.733 242.052 200.631 245.078C202.533 248.111 204.501 251.248 208.156 257.54C211.803 263.818 213.613 266.969 215.421 270.118C217.233 273.273 219.042 276.422 222.696 282.714C226.349 289.003 228.131 292.241 229.856 295.375C231.577 298.502 233.356 301.737 237.005 308.019C240.663 314.315 242.426 317.568 244.133 320.716C245.834 323.853 247.592 327.097 251.236 333.371C254.876 339.637 256.962 342.69 258.978 345.644C261.006 348.614 263.103 351.684 266.764 357.987C270.422 364.285 272.072 367.605 273.667 370.816C275.253 374.012 276.894 377.317 280.536 383.584C284.203 389.899 286.044 393.033 287.892 396.182C289.723 399.301 291.563 402.435 295.196 408.689L294.26 409.216Z" fill="#3BBFEE"/>
<path d="M282.185 416.009C278.525 409.706 276.92 406.358 275.368 403.12C273.825 399.9 272.23 396.571 268.589 390.304C264.948 384.037 262.906 380.957 260.931 377.98C258.948 374.988 256.896 371.895 253.238 365.598C249.588 359.315 247.751 356.18 245.913 353.045C244.074 349.91 242.236 346.774 238.584 340.488C234.929 334.195 233.161 330.945 231.451 327.802C229.745 324.667 227.981 321.424 224.334 315.146C220.676 308.847 218.878 305.688 217.077 302.523C215.284 299.371 213.488 296.214 209.846 289.944C206.202 283.671 204.193 280.57 202.251 277.57C200.301 274.56 198.285 271.447 194.627 265.152C190.969 258.855 189.298 255.548 187.68 252.35C186.071 249.165 184.405 245.872 180.763 239.602C177.127 233.344 175.28 230.218 173.44 227.102C171.586 223.964 169.739 220.836 166.078 214.534C162.421 208.24 160.732 204.942 159.1 201.754C157.474 198.579 155.793 195.295 152.149 189.023C148.501 182.744 146.575 179.591 144.712 176.543C142.845 173.489 140.915 170.331 137.26 164.041C133.61 157.756 131.821 154.59 130.033 151.426C128.245 148.261 126.457 145.099 122.805 138.813C119.154 132.527 117.335 129.379 115.517 126.232C113.698 123.086 111.88 119.939 108.228 113.653C104.585 107.382 102.505 104.323 100.493 101.365C98.471 98.3906 96.3801 95.3147 92.7178 89.0107C89.0594 82.712 87.4314 79.378 85.8562 76.1545C84.2894 72.9465 82.6698 69.63 79.0276 63.3607C76.6248 59.1574 74.0082 55.0761 71.1882 51.1327C68.3495 47.1655 65.7163 43.0593 63.2988 38.8298C59.6333 32.52 57.9982 29.1828 56.4172 25.9562C54.8436 22.7461 53.2169 19.4266 49.5701 13.1496C45.9185 6.86361 43.9384 3.73824 42.022 0.716147C40.1012 -2.31363 38.1153 -5.44777 34.4544 -11.7488L35.3908 -12.2758C39.0409 -5.99287 41.0207 -2.8683 42.9371 0.153788C44.8582 3.18437 46.8439 6.31855 50.5064 12.6226C54.1722 18.9325 55.8071 22.2684 57.3881 25.4953C58.9617 28.7054 60.5881 32.0247 64.2352 38.303C66.6373 42.5051 69.2532 46.585 72.0728 50.527C74.9123 54.4952 77.5461 58.6028 79.964 62.8337C83.6251 69.136 85.2531 72.4701 86.8284 75.6946C88.3951 78.9015 90.0146 82.218 93.6542 88.4837C97.2966 94.7543 99.3771 97.8137 101.389 100.773C103.411 103.746 105.502 106.822 109.164 113.126C112.816 119.412 114.635 122.56 116.453 125.707C118.272 128.853 120.09 132 123.742 138.286C127.396 144.577 129.185 147.743 130.974 150.909C132.762 154.071 134.548 157.234 138.197 163.514C141.845 169.794 143.771 172.947 145.635 175.995C147.501 179.049 149.431 182.206 153.086 188.496C156.742 194.791 158.431 198.088 160.063 201.277C161.689 204.452 163.37 207.736 167.014 214.007C170.672 220.306 172.519 223.432 174.372 226.568C176.214 229.686 178.061 232.813 181.699 239.075C185.357 245.372 187.028 248.679 188.646 251.877C190.256 255.062 191.921 258.355 195.564 264.625C199.208 270.897 201.216 273.999 203.159 276.998C205.108 280.009 207.124 283.12 210.782 289.417C214.426 295.691 216.224 298.85 218.017 302.003C219.818 305.167 221.614 308.324 225.271 314.619C228.924 320.91 230.693 324.159 232.402 327.301C234.108 330.437 235.872 333.681 239.521 339.961C243.171 346.244 245.008 349.379 246.846 352.514C248.685 355.649 250.523 358.785 254.175 365.071C257.817 371.34 259.858 374.42 261.833 377.398C263.816 380.389 265.868 383.481 269.525 389.777C273.186 396.08 274.791 399.428 276.344 402.668C277.886 405.887 279.482 409.216 283.122 415.482L282.185 416.009Z" fill="#3BBFEE"/>
<path d="M270.701 422.468C268.219 418.273 265.985 413.94 264.012 409.491C262.055 405.075 259.839 400.774 257.376 396.611C253.735 390.344 251.703 387.261 249.737 384.278C247.762 381.281 245.72 378.183 242.061 371.883C238.408 365.595 236.613 362.363 234.876 359.237C233.143 356.116 231.35 352.889 227.701 346.609C224.059 340.339 221.995 337.272 219.997 334.305C217.991 331.325 215.916 328.242 212.255 321.941C208.594 315.637 206.999 312.283 205.456 309.039C203.923 305.814 202.338 302.48 198.697 296.214C195.053 289.942 193.08 286.82 191.171 283.801C189.256 280.773 187.277 277.641 183.619 271.345C179.956 265.039 178.14 261.89 176.318 258.731C174.51 255.595 172.695 252.448 169.057 246.187C165.407 239.903 163.607 236.677 161.867 233.557C160.128 230.442 158.331 227.22 154.684 220.943C151.031 214.653 149.282 211.393 147.591 208.241C145.904 205.097 144.16 201.845 140.515 195.57C136.873 189.301 134.802 186.238 132.799 183.275C130.786 180.297 128.704 177.217 125.043 170.915C121.393 164.63 119.588 161.404 117.844 158.285C116.101 155.166 114.296 151.942 110.645 145.655C106.99 139.364 105.211 136.121 103.493 132.984C101.776 129.853 100.001 126.616 96.3522 120.336C92.6989 114.047 90.8897 110.824 89.1401 107.705C87.3906 104.589 85.5818 101.368 81.9299 95.0808C78.2769 88.7921 76.4792 85.5621 74.7403 82.4387C73.0034 79.3193 71.2074 76.0934 67.559 69.8135C63.9088 63.5284 61.961 60.3858 60.0779 57.3463C58.1907 54.3023 56.2397 51.154 52.5834 44.8594C48.9378 38.583 46.8551 35.5219 44.8405 32.56C42.8147 29.5843 40.7214 26.5059 37.0543 20.194C34.57 15.9931 32.3308 11.6562 30.3476 7.20465C28.38 2.78448 26.1571 -1.52142 23.6899 -5.69166L24.6263 -6.21845C27.1109 -2.01786 29.3498 2.31914 31.3319 6.77108C33.3005 11.1909 35.5237 15.4967 37.9907 19.6672C41.6376 25.9452 43.7208 29.0076 45.7352 31.9684C47.7599 34.9452 49.8543 38.0226 53.5198 44.3326C57.1682 50.6125 59.1149 53.7553 60.9976 56.7927C62.8852 59.8388 64.8361 62.9882 68.4955 69.2865C72.1486 75.5754 73.9462 78.8051 75.6852 81.9285C77.4221 85.0481 79.2179 88.2738 82.8663 94.554C86.5214 100.846 88.332 104.072 90.0829 107.191C91.8309 110.307 93.6387 113.527 97.2886 119.809C100.943 126.1 102.722 129.343 104.441 132.48C106.157 135.611 107.933 138.848 111.581 145.128C115.237 151.422 117.042 154.65 118.788 157.772C120.531 160.888 122.333 164.11 125.979 170.388C129.622 176.658 131.693 179.722 133.696 182.685C135.709 185.663 137.79 188.742 141.451 195.043C145.105 201.333 146.853 204.593 148.545 207.746C150.231 210.89 151.975 214.141 155.621 220.417C159.271 226.701 161.071 229.927 162.811 233.047C164.55 236.162 166.347 239.384 169.994 245.66C173.631 251.922 175.446 255.071 177.256 258.207C179.077 261.365 180.892 264.513 184.556 270.818C188.203 277.096 190.177 280.219 192.086 283.239C194 286.267 195.979 289.397 199.634 295.687C203.295 301.991 204.89 305.345 206.433 308.589C207.966 311.814 209.551 315.148 213.192 321.414C216.834 327.683 218.899 330.751 220.896 333.718C222.902 336.698 224.977 339.781 228.638 346.082C232.291 352.371 234.086 355.602 235.823 358.728C237.556 361.849 239.349 365.076 242.997 371.356C246.64 377.629 248.674 380.714 250.641 383.698C252.614 386.693 254.656 389.791 258.312 396.084C260.793 400.278 263.025 404.611 264.998 409.059C266.957 413.476 269.173 417.777 271.637 421.941L270.701 422.468Z" fill="#3BBFEE"/>
<path d="M259.759 428.625C256.115 422.351 254.12 419.242 252.19 416.235C250.255 413.218 248.254 410.098 244.596 403.804C242.118 399.611 239.878 395.286 237.887 390.849C235.909 386.442 233.685 382.146 231.223 377.982C227.579 371.71 225.61 368.584 223.705 365.563C221.795 362.533 219.819 359.399 216.162 353.103C212.518 346.831 210.472 343.753 208.492 340.777C206.504 337.786 204.446 334.694 200.787 328.395C198.312 324.202 196.051 319.891 194.012 315.476C191.986 311.09 189.74 306.805 187.281 302.638C183.63 296.353 181.727 293.185 179.887 290.121C178.047 287.056 176.144 283.887 172.493 277.603C168.838 271.311 167.083 268.055 165.385 264.907C163.692 261.765 161.94 258.518 158.295 252.241C154.649 245.966 152.745 242.804 150.902 239.746C149.058 236.685 147.151 233.52 143.501 227.236C139.859 220.967 137.846 217.87 135.9 214.875C133.946 211.868 131.925 208.759 128.267 202.461C124.609 196.164 122.915 192.87 121.276 189.684C119.643 186.509 117.955 183.227 114.309 176.953C110.67 170.688 108.547 167.657 106.494 164.725C104.427 161.775 102.29 158.724 98.626 152.417C94.9678 146.119 93.2457 142.84 91.5799 139.67C89.92 136.51 88.2043 133.243 84.5603 126.969C80.8994 120.668 79.2343 117.354 77.6231 114.149C76.0188 110.96 74.3607 107.66 70.7167 101.387C67.0739 95.1153 65.0314 92.0345 63.0553 89.0554C61.0717 86.0639 59.0207 82.9708 55.3626 76.6743C51.7154 70.3952 49.7226 67.2813 47.7944 64.2699C45.8608 61.2486 43.8609 58.1244 40.2015 51.8251C36.5422 45.5268 34.7692 42.2746 33.0545 39.1301C31.3439 35.9912 29.5733 32.7451 25.9199 26.4565C22.2558 20.1495 20.5581 16.8505 18.9155 13.661C17.2793 10.4837 15.5882 7.19863 11.9395 0.917592L12.8759 0.390804C16.5371 6.69396 18.2349 9.99179 19.8775 13.1814C21.5139 16.3594 23.206 19.6455 26.8563 25.9295C30.5172 32.2307 32.2899 35.4827 34.0049 38.6274C35.7164 41.7661 37.4859 45.0113 41.1378 51.2981C44.7851 57.5774 46.7779 60.6911 48.7061 63.7027C50.6397 66.724 52.6396 69.8482 56.299 76.1475C59.9402 82.4162 61.9825 85.496 63.9573 88.4742C65.9422 91.4666 67.9936 94.5606 71.6531 100.86C75.3129 107.161 76.9789 110.474 78.5901 113.679C80.1931 116.869 81.8514 120.168 85.4967 126.442C89.1519 132.735 90.8736 136.013 92.5382 139.182C94.1983 142.343 95.9151 145.611 99.5624 151.89C103.202 158.158 105.327 161.189 107.38 164.121C109.447 167.071 111.583 170.121 115.246 176.426C118.904 182.723 120.599 186.017 122.238 189.203C123.87 192.378 125.558 195.66 129.204 201.935C132.848 208.208 134.86 211.305 136.807 214.302C138.761 217.307 140.781 220.416 144.437 226.709C148.083 232.984 149.987 236.146 151.83 239.204C153.674 242.265 155.581 245.431 159.231 251.714C162.884 258.004 164.64 261.26 166.337 264.409C168.031 267.55 169.783 270.799 173.43 277.076C177.075 283.352 178.977 286.519 180.815 289.58C182.657 292.647 184.562 295.819 188.217 302.111C190.691 306.304 192.952 310.616 194.991 315.03C197.017 319.417 199.264 323.702 201.723 327.868C205.366 334.14 207.413 337.217 209.393 340.194C211.382 343.184 213.438 346.277 217.099 352.576C220.746 358.855 222.716 361.98 224.621 365.003C226.53 368.033 228.505 371.164 232.159 377.455C234.639 381.649 236.879 385.975 238.87 390.413C240.847 394.819 243.072 399.114 245.533 403.277C249.177 409.55 251.172 412.661 253.102 415.668C255.037 418.684 257.038 421.804 260.695 428.098L259.759 428.625Z" fill="#3BBFEE"/>
<path d="M250.265 123.265L249.724 122.333L265.835 113.259C269.848 110.997 271.842 109.766 273.771 108.576C275.711 107.38 277.716 106.143 281.756 103.866C285.781 101.597 287.788 100.451 289.794 99.3065C291.802 98.1597 293.81 97.0137 297.839 94.743C301.854 92.48 303.827 91.2135 305.736 89.989C307.657 88.756 309.644 87.4819 313.684 85.2038C316.377 83.6588 319.157 82.2656 322.01 81.031C324.833 79.8102 327.583 78.4321 330.246 76.9032C332.933 75.4168 335.528 73.7758 338.019 71.9887C340.54 70.1806 343.167 68.5202 345.885 67.0158C349.916 64.7436 351.953 63.6439 353.989 62.5451C356.021 61.4472 358.054 60.35 362.076 58.0826C364.777 56.5191 367.612 55.1916 370.549 54.1152C373.435 53.0581 376.22 51.7537 378.874 50.2166C381.563 48.738 384.129 47.051 386.547 45.1716C389.004 43.2618 391.612 41.5475 394.344 40.0447C398.389 37.7647 400.541 36.7675 402.62 35.8028C404.682 34.8472 406.814 33.8587 410.825 31.5974C414.845 29.3315 416.864 28.1359 418.817 26.979C420.776 25.8192 422.802 24.6202 426.837 22.3452C430.88 20.0669 433.009 19.0361 435.069 18.0397C437.114 17.0512 439.228 16.0283 443.241 13.7657C447.259 11.5011 449.239 10.242 451.153 9.02391C453.078 7.7999 455.069 6.53354 459.109 4.25552C463.141 1.98337 465.225 0.884826 467.24 -0.176282C469.249 -1.23509 471.327 -2.32941 475.348 -4.59663C479.392 -6.87618 481.42 -7.99258 483.453 -9.11302C485.473 -10.225 487.498 -11.3409 491.515 -13.6052C495.536 -15.8714 497.521 -17.125 499.441 -18.3368C501.372 -19.5556 503.37 -20.8167 507.417 -23.0979C511.467 -25.3808 513.619 -26.3834 515.699 -27.3536C517.761 -28.3142 519.893 -29.3082 523.908 -31.5712L524.449 -30.6393C520.398 -28.3564 518.246 -27.3537 516.166 -26.3836C514.104 -25.423 511.972 -24.429 507.957 -22.166C503.935 -19.8986 501.949 -18.6447 500.028 -17.4331C498.097 -16.2141 496.099 -14.9532 492.056 -12.6734C488.035 -10.4072 486.007 -9.28979 483.984 -8.17657C481.953 -7.05755 479.928 -5.9415 475.889 -3.66475C471.855 -1.391 469.77 -0.29248 467.754 0.769682C465.746 1.82747 463.668 2.92157 459.649 5.1874C455.635 7.45039 453.656 8.70917 451.743 9.92598C449.817 11.1515 447.825 12.418 443.781 14.6976C439.739 16.9759 437.609 18.0068 435.549 19.0031C433.505 19.9918 431.391 21.0145 427.377 23.2771C423.352 25.5461 421.332 26.7421 419.378 27.8989C417.42 29.0585 415.396 30.2571 411.365 32.5293C407.318 34.8106 405.166 35.8081 403.085 36.773C401.024 37.7292 398.893 38.7178 394.885 40.9765C392.195 42.4554 389.629 44.1428 387.21 46.0228C384.754 47.9325 382.147 49.6464 379.415 51.1485C376.714 52.712 373.879 54.0395 370.942 55.1159C368.056 56.1728 365.27 57.4773 362.616 59.0145C358.586 61.2866 356.549 62.3864 354.513 63.4851C352.481 64.5831 350.448 65.6803 346.426 67.9477C343.739 69.4345 341.144 71.0754 338.652 72.8622C336.131 74.6704 333.505 76.3309 330.786 77.8351C328.093 79.3813 325.312 80.7752 322.457 82.0098C319.635 83.2304 316.887 84.6078 314.225 86.1356C310.211 88.3985 308.238 89.6639 306.33 90.8882C304.408 92.1214 302.422 93.3965 298.379 95.6748C294.354 97.9438 292.347 99.0896 290.34 100.234C288.333 101.381 286.325 102.527 282.296 104.798C278.276 107.064 276.279 108.295 274.348 109.486C272.411 110.682 270.406 111.917 266.376 114.19L250.265 123.265Z" fill="#3BBFEE"/>
<path d="M244.014 112.523L243.474 111.592C247.488 109.329 249.466 108.071 251.379 106.854C253.305 105.63 255.295 104.364 259.335 102.087C263.366 99.815 265.44 98.7047 267.447 97.6301C269.448 96.5575 271.518 95.4489 275.539 93.1828C279.567 90.9123 281.558 89.7429 283.551 88.5708C285.542 87.4002 287.537 86.2278 291.563 83.9577C295.589 81.6886 297.662 80.5784 299.667 79.5029C301.671 78.4291 303.742 77.3191 307.772 75.0472C311.81 72.7709 313.834 71.6508 315.862 70.528C317.879 69.4113 319.901 68.2928 323.917 66.0287C327.926 63.768 329.89 62.488 331.789 61.2515C333.703 60.0036 335.682 58.714 339.726 56.4344C343.756 54.1625 345.791 53.0608 347.826 51.9581C349.856 50.8584 351.887 49.7575 355.91 47.49C359.926 45.2268 361.911 43.9818 363.831 42.7778C365.76 41.5678 367.756 40.3154 371.789 38.0419C375.817 35.7725 377.818 34.6184 379.821 33.4647C381.822 32.3104 383.825 31.157 387.849 28.8883C391.888 26.6116 393.998 25.5523 396.04 24.5272C398.068 23.5085 400.167 22.4554 404.184 20.1911C408.231 17.91 410.383 16.9147 412.465 15.9516C414.527 14.9973 416.66 14.0107 420.669 11.7507C423.365 10.2787 425.899 8.5362 428.232 6.55059C430.612 4.52328 433.199 2.74425 435.951 1.24154C439.999 -1.03991 442.156 -2.03064 444.242 -2.98779C446.308 -3.9365 448.444 -4.91735 452.454 -7.17727C456.465 -9.4384 458.436 -10.7068 460.343 -11.932C462.263 -13.167 464.249 -14.444 468.29 -16.7221C470.993 -18.2837 473.817 -19.6295 476.738 -20.7468C479.613 -21.8456 482.393 -23.1696 485.052 -24.7061C487.749 -26.1827 490.299 -27.9048 492.67 -29.8499C495.086 -31.8324 497.685 -33.5874 500.434 -35.0922C503.136 -36.6515 505.955 -38.0069 508.865 -39.147C511.733 -40.2691 514.51 -41.6043 517.172 -43.1411L517.712 -42.2093C515.009 -40.6499 512.191 -39.2944 509.28 -38.1542C506.412 -37.0322 503.636 -35.6971 500.974 -34.1603C498.276 -32.6837 495.725 -30.9611 493.354 -29.015C490.938 -27.0329 488.34 -25.2784 485.592 -23.7742C482.891 -22.2133 480.066 -20.8683 477.146 -19.7519C474.271 -18.6525 471.49 -17.3277 468.831 -15.7902C464.817 -13.5287 462.844 -12.2602 460.938 -11.034C459.019 -9.79909 457.033 -8.52315 452.994 -6.24541C448.945 -3.964 446.789 -2.97323 444.703 -2.0159C442.637 -1.0674 440.501 -0.0865627 436.491 2.17335C433.796 3.64546 431.261 5.38806 428.929 7.37372C426.548 9.40087 423.961 11.1798 421.209 12.6826C417.163 14.9636 415.011 15.9589 412.929 16.9221C410.866 17.8763 408.734 18.863 404.725 21.1229C400.686 23.3994 398.576 24.4587 396.534 25.4839C394.505 26.5016 392.407 27.5556 388.39 29.8201C384.37 32.0848 382.369 33.238 380.371 34.3906C378.366 35.5456 376.362 36.7005 372.33 38.9738C368.319 41.2349 366.335 42.4788 364.416 43.6828C362.484 44.8942 360.488 46.1455 356.45 48.4218C352.421 50.6937 350.386 51.7954 348.351 52.8981C346.32 53.998 344.29 55.0987 340.267 57.3662C336.253 59.6277 334.289 60.9085 332.389 62.1465C330.476 63.3931 328.498 64.6827 324.457 66.9605C320.438 69.2263 318.415 70.3461 316.395 71.4632C314.369 72.5846 312.347 73.7043 308.312 75.979C304.274 78.2557 302.197 79.3687 300.188 80.4455C298.188 81.518 296.119 82.6264 292.103 84.8895C288.087 87.1538 286.096 88.3242 284.109 89.4922C282.111 90.666 280.117 91.8394 276.079 94.1146C272.049 96.3867 269.974 97.4973 267.968 98.5716C265.966 99.6443 263.897 100.753 259.875 103.019C255.861 105.282 253.883 106.539 251.97 107.756C250.044 108.98 248.054 110.247 244.014 112.523Z" fill="#3BBFEE"/>
<path d="M237.103 100.652L236.563 99.7206C240.586 97.4531 242.579 96.2884 244.573 95.1227C246.569 93.9554 248.567 92.7879 252.598 90.5157C256.635 88.2394 258.737 87.1665 260.769 86.1292C262.789 85.0979 264.879 84.0314 268.894 81.7686C271.583 80.2882 274.157 78.6142 276.596 76.76C279.072 74.8789 281.685 73.1801 284.414 71.6773C287.112 70.1194 289.928 68.7665 292.836 67.6303C295.701 66.5106 298.474 65.1777 301.133 63.6432C305.154 61.3768 307.16 60.1602 309.1 58.9824C311.046 57.8012 313.059 56.5802 317.093 54.3064C321.103 52.0454 323.075 50.7791 324.981 49.5539C326.902 48.3199 328.89 47.0435 332.933 44.764C336.974 42.4858 339.102 41.4554 341.161 40.4592C343.204 39.4696 345.317 38.4461 349.329 36.1845C353.34 33.9235 355.329 32.6871 357.254 31.4918C359.189 30.2903 361.19 29.0467 365.229 26.7702C369.269 24.4931 371.398 23.4645 373.458 22.4692C375.502 21.4818 377.616 20.4612 381.628 18.1998C385.661 15.9263 387.741 14.82 389.752 13.7512C391.758 12.6854 393.832 11.5823 397.854 9.31496C400.543 7.83461 403.115 6.15509 405.547 4.29075C408.017 2.39862 410.628 0.693573 413.359 -0.80995C417.382 -3.07753 419.402 -4.27351 421.356 -5.42907C423.314 -6.58872 425.34 -7.78768 429.372 -10.0612C433.408 -12.3364 435.495 -13.4319 437.514 -14.4917C439.525 -15.5466 441.605 -16.639 445.627 -18.9064C449.671 -21.1851 451.811 -22.1973 453.882 -23.1766C455.935 -24.1474 458.058 -25.1505 462.068 -27.4117C464.756 -28.9005 467.36 -30.5326 469.868 -32.3009C472.404 -34.0892 475.037 -35.7399 477.756 -37.2458C481.793 -39.5211 483.831 -40.6253 485.869 -41.7285C487.904 -42.8302 489.938 -43.9317 493.967 -46.2035C496.669 -47.7627 499.487 -49.1198 502.397 -50.2636C505.262 -51.39 508.038 -52.7267 510.7 -54.2625L511.24 -53.3306C508.538 -51.7722 505.722 -50.4156 502.813 -49.2722C499.947 -48.1455 497.17 -46.8083 494.507 -45.2717C490.47 -42.9965 488.432 -41.8922 486.394 -40.7889C484.359 -39.6872 482.325 -38.5857 478.296 -36.3139C475.607 -34.8243 473.003 -33.1916 470.494 -31.4231C467.958 -29.6356 465.326 -27.9854 462.609 -26.4799C458.565 -24.2001 456.424 -23.1887 454.354 -22.2096C452.301 -21.2387 450.178 -20.2347 446.168 -17.9745C442.132 -15.6996 440.045 -14.6038 438.026 -13.5443C436.015 -12.4891 433.935 -11.3968 429.913 -9.1294C425.89 -6.86182 423.87 -5.66604 421.916 -4.51026C419.958 -3.35062 417.932 -2.15166 413.899 0.121934C411.209 1.6018 408.637 3.28134 406.206 5.14614C403.736 7.03822 401.125 8.74326 398.394 10.2468C394.36 12.5206 392.281 13.6266 390.27 14.6954C388.264 15.7614 386.19 16.8643 382.168 19.1317C378.127 21.4088 375.998 22.4373 373.938 23.4327C371.895 24.42 369.78 25.4406 365.769 27.7021C361.752 29.9664 359.759 31.2031 357.834 32.3999C355.901 33.601 353.9 34.8434 349.87 37.1163C345.829 39.3945 343.701 40.4249 341.642 41.4212C339.599 42.4107 337.486 43.4342 333.474 45.6958C329.457 47.959 327.484 49.2265 325.576 50.4529C323.656 51.686 321.672 52.9618 317.633 55.2383C313.615 57.5029 311.61 58.7195 309.671 59.8961C307.724 61.0774 305.71 62.2997 301.674 64.575C298.975 66.1329 296.159 67.4858 293.251 68.622C290.386 69.7418 287.613 71.0747 284.954 72.6092C282.265 74.0897 279.69 75.7638 277.251 77.618C274.776 79.4991 272.163 81.1978 269.434 82.7005C265.401 84.973 263.302 86.0453 261.271 87.0813C259.248 88.1141 257.157 89.1818 253.138 91.4476C249.115 93.7152 247.121 94.8798 245.128 96.0457C243.131 97.213 241.134 98.3806 237.103 100.652Z" fill="#3BBFEE"/>
<path d="M230.177 88.7532L229.637 87.8213C233.675 85.546 235.779 84.4779 237.814 83.4466C239.839 82.42 241.933 81.3591 245.95 79.0949C249.981 76.8215 252.057 75.7118 254.065 74.6372C256.067 73.5667 258.136 72.4591 262.155 70.1933C266.201 67.9132 268.361 66.9295 270.449 65.978C272.516 65.0356 274.654 64.0607 278.663 61.8011C281.357 60.3266 283.901 58.601 286.261 56.6476C288.666 54.656 291.259 52.8971 294.005 51.395C298.045 49.1179 300.177 48.0933 302.24 47.1026C304.288 46.1189 306.405 45.102 310.418 42.8392C314.446 40.5688 316.466 39.444 318.486 38.3194C320.506 37.1961 322.525 36.0716 326.551 33.8025C330.593 31.5241 332.725 30.4993 334.788 29.5087C336.835 28.5251 338.951 27.5084 342.962 25.247C346.974 22.9858 348.952 21.7312 350.866 20.5184C352.792 19.2973 354.782 18.0356 358.818 15.7602C362.862 13.4807 364.999 12.4635 367.066 11.4785C369.116 10.503 371.235 9.49414 375.244 7.23456C379.258 4.97156 381.242 3.7224 383.161 2.51415C385.091 1.29761 387.088 0.0410861 391.129 -2.23707C395.139 -4.49705 397.091 -5.79605 398.978 -7.05084C400.882 -8.3181 402.852 -9.62755 406.898 -11.9087C410.938 -14.1856 413.054 -15.2374 415.1 -16.2539C417.133 -17.265 419.236 -18.309 423.252 -20.5732C427.291 -22.8499 429.395 -23.9199 431.431 -24.9536C433.456 -25.9835 435.55 -27.0474 439.569 -29.3134C442.258 -30.7934 444.829 -32.4717 447.262 -34.334C449.731 -36.2248 452.342 -37.9287 455.072 -39.4314C459.103 -41.7035 461.181 -42.8115 463.192 -43.8824C465.198 -44.9526 467.273 -46.059 471.303 -48.3309L487.433 -57.4278C491.469 -59.7031 493.565 -60.7887 495.592 -61.8388C497.611 -62.8857 499.7 -63.968 503.729 -66.2398L504.269 -65.3079C500.225 -63.0282 498.127 -61.9411 496.099 -60.8894C494.081 -59.8441 491.994 -58.7621 487.973 -56.4959L471.843 -47.3991C467.803 -45.1211 465.723 -44.0128 463.71 -42.9394C461.706 -41.8706 459.633 -40.7654 455.612 -38.4995C452.923 -37.0195 450.352 -35.3411 447.919 -33.4786C445.45 -31.588 442.839 -29.8841 440.109 -28.3813C436.07 -26.1047 433.966 -25.0347 431.931 -24.0011C429.905 -22.9712 427.812 -21.9073 423.793 -19.6413C419.753 -17.3646 417.637 -16.3128 415.59 -15.2963C413.557 -14.2852 411.455 -13.2412 407.439 -10.9768C403.427 -8.71563 401.475 -7.41764 399.587 -6.16166C397.683 -4.89523 395.714 -3.58513 391.67 -1.30519C387.651 0.959354 385.667 2.20974 383.747 3.41818C381.817 4.63347 379.822 5.88982 375.784 8.1664C371.743 10.4433 369.607 11.4603 367.541 12.4441C365.491 13.4208 363.37 14.4309 359.359 16.6921C355.347 18.9535 353.369 20.208 351.455 21.4209C349.529 22.6417 347.539 23.9037 343.503 26.1788C339.461 28.4572 337.328 29.4821 335.266 30.4727C333.219 31.4562 331.103 32.473 327.091 34.7344C323.063 37.0049 321.043 38.1295 319.023 39.2541C317.004 40.3774 314.984 41.5019 310.958 43.771C306.915 46.0508 304.781 47.0758 302.718 48.0664C300.671 49.05 298.555 50.0667 294.545 52.3269C291.851 53.8003 289.307 55.5258 286.949 57.4798C284.543 59.4706 281.949 61.2296 279.203 62.733C276.511 64.2752 273.742 65.6828 270.906 66.9507C268.839 67.8933 266.701 68.867 262.696 71.1252C258.667 73.3968 256.591 74.5065 254.585 75.58C252.583 76.6516 250.512 77.7594 246.49 80.0268C242.453 82.3019 240.35 83.3686 238.314 84.4003C236.288 85.4268 234.194 86.4887 230.177 88.7532Z" fill="#3BBFEE"/>
<path d="M223.832 77.8537L223.291 76.9218C227.332 74.6438 229.448 73.5909 231.493 72.5735C233.525 71.5626 235.626 70.5166 239.639 68.255C243.72 65.9541 245.735 64.8239 247.779 63.6771C249.767 62.5612 251.782 61.4312 255.752 59.1926C259.79 56.9173 261.896 55.8503 263.932 54.8196C265.957 53.7929 268.051 52.7331 272.068 50.4689C274.762 48.9954 277.302 47.2637 279.652 45.2986C282.048 43.2937 284.638 41.5274 287.386 40.025C290.085 38.4656 292.906 37.1204 295.823 36.0021C298.695 34.9006 301.473 33.5757 304.131 32.0396C306.818 30.5524 309.416 28.9147 311.912 27.1343C314.437 25.3329 317.065 23.6762 319.783 22.1722C323.8 19.9076 325.799 18.6813 327.732 17.4951C329.674 16.3032 331.681 15.0714 335.717 12.7962C339.744 10.5258 341.775 9.42057 343.806 8.31415C345.833 7.21076 347.86 6.10606 351.881 3.83991C354.573 2.29784 357.343 0.893133 360.18 -0.3687C362.989 -1.61841 365.731 -3.00903 368.394 -4.53517C372.428 -6.80894 374.518 -7.89874 376.539 -8.95341C378.554 -10.0036 380.636 -11.0901 384.657 -13.3573C388.678 -15.6235 390.691 -16.8308 392.638 -17.9982C394.59 -19.1687 396.609 -20.3792 400.644 -22.6542C403.33 -24.1437 405.938 -25.7671 408.456 -27.5181C411.002 -29.2873 413.636 -30.9278 416.35 -32.4333C419.048 -33.986 421.848 -35.3601 424.731 -36.5465C427.575 -37.7162 430.337 -39.0713 432.998 -40.603C437.036 -42.8794 439.134 -43.958 441.163 -45.0001C443.182 -46.0374 445.268 -47.1096 449.284 -49.3741C451.977 -50.8545 454.547 -52.5411 456.971 -54.4183C459.434 -56.3245 462.045 -58.0375 464.779 -59.5418C468.811 -61.815 470.825 -62.9558 472.838 -64.0972C474.852 -65.2388 476.866 -66.3804 480.899 -68.6542C483.601 -70.2111 486.412 -71.5753 489.311 -72.7366C492.17 -73.8819 494.941 -75.2273 497.605 -76.7626L498.145 -75.8307C495.444 -74.2738 492.632 -72.9095 489.733 -71.7483C486.874 -70.603 484.103 -69.2576 481.44 -67.7223C477.408 -65.4489 475.394 -64.3084 473.381 -63.1669C471.367 -62.0253 469.353 -60.8835 465.319 -58.61C462.627 -57.1294 460.057 -55.4429 457.632 -53.5657C455.17 -51.6594 452.559 -49.9464 449.825 -48.4423C445.792 -46.1687 443.694 -45.0913 441.667 -44.0495C439.647 -43.0109 437.558 -41.9383 433.538 -39.6713C430.842 -38.1194 428.043 -36.7462 425.161 -35.5606C422.315 -34.3897 419.553 -33.0336 416.891 -31.5012C414.204 -30.0117 411.597 -28.3883 409.078 -26.6374C406.533 -24.8681 403.898 -23.2277 401.184 -21.7224C397.163 -19.456 395.15 -18.2486 393.203 -17.0813C391.25 -15.9108 389.232 -14.7004 385.197 -12.4254C381.161 -10.1505 379.071 -9.06045 377.049 -8.00564C375.036 -6.95556 372.954 -5.8691 368.935 -3.60328C366.244 -2.06123 363.474 -0.656504 360.636 0.60539C357.827 1.85497 355.086 3.24561 352.422 4.77186C348.395 7.04228 346.364 8.14746 344.333 9.25392C342.305 10.3573 340.278 11.462 336.257 13.7282C332.24 15.9926 330.24 17.219 328.307 18.4052C326.366 19.5971 324.359 20.829 320.323 23.1041C317.637 24.5909 315.039 26.2286 312.544 28.0091C310.018 29.8106 307.39 31.4675 304.671 32.9715C301.971 34.5316 299.149 35.8777 296.232 36.9971C293.361 38.0976 290.584 39.4217 287.927 40.957C285.232 42.4305 282.692 44.1622 280.342 46.1273C277.946 48.1321 275.356 49.8985 272.608 51.4009C268.571 53.6761 266.466 54.7418 264.43 55.7736C262.405 56.7992 260.31 57.8602 256.292 60.1246C252.322 62.3621 250.306 63.4933 248.319 64.6093C246.276 65.7559 244.261 66.8861 240.179 69.187C236.143 71.4622 234.029 72.5137 231.985 73.5307C229.952 74.5416 227.849 75.5882 223.832 77.8537Z" fill="#3BBFEE"/>
<path d="M217.512 66.9907L216.971 66.0588C220.993 63.7915 222.983 62.6211 224.973 61.4496C226.966 60.2766 228.96 59.1021 232.992 56.83C237.02 54.5595 239.012 53.393 241.007 52.2248C242.999 51.0572 244.994 49.8891 249.018 47.6203C253.038 45.3556 255.065 44.2403 257.086 43.1292C259.117 42.0136 261.141 40.8998 265.176 38.6251C269.208 36.3528 271.295 35.2614 273.314 34.206C275.327 33.1528 277.409 32.0644 281.433 29.7956C284.123 28.3162 286.69 26.6312 289.112 24.756C291.573 22.8505 294.181 21.1386 296.914 19.6359C299.613 18.0771 302.432 16.7299 305.346 15.6065C308.216 14.5 310.992 13.1729 313.65 11.6373C317.672 9.37095 319.689 8.1724 321.639 7.01302C323.596 5.85147 325.62 4.64993 329.651 2.37662C333.664 0.115088 335.636 -1.14907 337.545 -2.37145C339.464 -3.60106 341.449 -4.87369 345.485 -7.14857C349.509 -9.41624 351.547 -10.5143 353.582 -11.6115C355.617 -12.7079 357.65 -13.804 361.678 -16.0745C365.709 -18.3464 367.739 -19.4568 369.769 -20.5672C371.797 -21.676 373.824 -22.7848 377.849 -25.0537C381.879 -27.3257 383.904 -28.4436 385.928 -29.5626C387.951 -30.6803 389.974 -31.7968 394 -34.067C398.039 -36.3437 400.148 -37.4039 402.188 -38.4298C404.218 -39.4497 406.315 -40.5045 410.332 -42.7691C414.368 -45.044 416.453 -46.1425 418.469 -47.2048C420.479 -48.2629 422.558 -49.3582 426.58 -51.6255C430.602 -53.8931 432.593 -55.0624 434.582 -56.2328C436.577 -57.405 438.571 -58.5784 442.603 -60.8505C445.295 -62.3308 447.864 -64.0179 450.287 -65.8962C452.749 -67.8038 455.359 -69.5175 458.094 -71.0217C460.799 -72.5844 463.629 -73.9263 466.556 -75.034C469.438 -76.1235 472.223 -77.4441 474.884 -78.9828C478.9 -81.2469 480.86 -82.5398 482.755 -83.7897C484.666 -85.0506 486.64 -86.3546 490.691 -88.6373L491.231 -87.7054C487.215 -85.4413 485.255 -84.1486 483.36 -82.8987C481.449 -81.6376 479.474 -80.3338 475.424 -78.0509C472.719 -76.4871 469.888 -75.1447 466.96 -74.0372C464.08 -72.9479 461.295 -71.6278 458.635 -70.0898C455.943 -68.6097 453.373 -66.9226 450.95 -65.0441C448.488 -63.1366 445.878 -61.4229 443.143 -59.9185C439.121 -57.6512 437.131 -56.4819 435.141 -55.3114C433.147 -54.1393 431.153 -52.9658 427.121 -50.6936C423.085 -48.4187 421 -47.3202 418.983 -46.2579C416.974 -45.1998 414.895 -44.1045 410.872 -41.8371C406.834 -39.5604 404.725 -38.5003 402.684 -37.4744C400.655 -36.4544 398.558 -35.3994 394.54 -33.135C390.511 -30.8642 388.486 -29.7452 386.461 -28.6262C384.439 -27.5086 382.415 -26.392 378.389 -24.1218C374.359 -21.8499 372.328 -20.7395 370.298 -19.6291C368.271 -18.5203 366.243 -17.4112 362.218 -15.1423C358.183 -12.8674 356.145 -11.7695 354.105 -10.6702C352.075 -9.57578 350.042 -8.47993 346.025 -6.21662C342.017 -3.9571 340.045 -2.69293 338.138 -1.47175C336.217 -0.241123 334.231 1.0319 330.192 3.30854C326.17 5.57463 324.153 6.77318 322.202 7.93261C320.246 9.09414 318.222 10.2959 314.191 12.5692C311.491 14.1289 308.671 15.4767 305.756 16.6002C302.887 17.7065 300.111 19.033 297.454 20.5678C294.764 22.0473 292.196 23.7324 289.773 25.6078C287.313 27.5129 284.705 29.2248 281.974 30.7276C277.935 33.0041 275.846 34.0969 273.825 35.1537C271.814 36.2055 269.733 37.2928 265.716 39.5571C261.676 41.8337 259.65 42.9489 257.618 44.0659C255.598 45.1767 253.573 46.2893 249.559 48.5523C245.543 50.8151 243.551 51.9828 241.563 53.1467C239.564 54.3175 237.569 55.4867 233.532 57.762C229.51 60.0293 227.521 61.1995 225.531 62.3712C223.537 63.5441 221.544 64.7184 217.512 66.9907Z" fill="#3BBFEE"/>
<path d="M210.522 54.9876L209.982 54.0557C212.675 52.5094 215.458 51.1192 218.317 49.8921C221.142 48.6788 223.892 47.3043 226.555 45.7757C230.56 43.5175 232.501 42.2055 234.378 40.9364C236.275 39.6556 238.235 38.3308 242.282 36.0496C244.975 34.5053 247.752 33.107 250.6 31.8609C253.417 30.6299 256.163 29.2475 258.826 27.72C261.517 26.2411 264.081 24.5489 266.493 22.6602C268.944 20.7388 271.55 19.0184 274.285 17.5161C278.32 15.2421 280.423 14.1744 282.458 13.1429C284.483 12.1152 286.578 11.0522 290.597 8.78644C294.621 6.51872 296.65 5.40739 298.678 4.29854C300.707 3.18722 302.733 2.0775 306.764 -0.194674C310.802 -2.47124 312.916 -3.52372 314.96 -4.54098C316.992 -5.55287 319.094 -6.599 323.109 -8.86201C327.129 -11.128 329.123 -12.2895 331.117 -13.4512C333.114 -14.6155 335.111 -15.7786 339.139 -18.0492C343.178 -20.3257 345.278 -21.4013 347.308 -22.4406C349.327 -23.4758 351.417 -24.5454 355.43 -26.807C358.121 -28.2861 360.686 -29.9762 363.101 -31.8613C365.556 -33.7771 368.163 -35.4948 370.898 -36.9979C373.601 -38.5641 376.442 -39.8892 379.385 -40.9573C382.278 -42.0056 385.069 -43.3071 387.725 -44.8462C391.747 -47.1138 393.762 -48.3172 395.71 -49.4815C397.664 -50.6492 399.686 -51.8569 403.72 -54.1305C406.41 -55.6113 408.983 -57.2899 411.417 -59.1521C413.889 -61.0432 416.501 -62.7478 419.233 -64.2515C421.937 -65.8197 424.783 -67.1378 427.735 -68.1889C430.633 -69.2206 433.427 -70.5147 436.081 -72.0549C440.109 -74.3242 442.131 -75.5206 444.087 -76.6767C446.048 -77.8358 448.074 -79.0338 452.107 -81.3071C456.14 -83.5807 458.138 -84.7442 460.138 -85.9089C462.138 -87.0746 464.139 -88.2409 468.173 -90.5144C472.198 -92.7822 474.197 -94.0139 476.132 -95.2048C478.075 -96.4002 480.085 -97.6366 484.128 -99.916L484.668 -98.9841C480.644 -96.7164 478.644 -95.4847 476.709 -94.294C474.766 -93.0986 472.756 -91.862 468.714 -89.5826C464.688 -87.3134 462.689 -86.1489 460.692 -84.9856C458.689 -83.8183 456.687 -82.6532 452.647 -80.3753C448.624 -78.1077 446.602 -76.9128 444.648 -75.7568C442.687 -74.5977 440.66 -73.3985 436.622 -71.1231C433.918 -69.5544 431.072 -68.2364 428.12 -67.1859C425.223 -66.1536 422.429 -64.8594 419.774 -63.3197C417.083 -61.8385 414.509 -60.1594 412.074 -58.2967C409.603 -56.4067 406.991 -54.7026 404.26 -53.1986C400.238 -50.9312 398.223 -49.7279 396.275 -48.5634C394.32 -47.3959 392.299 -46.1881 388.265 -43.9144C385.562 -42.3482 382.721 -41.0232 379.777 -39.955C376.885 -38.9067 374.094 -37.6051 371.438 -36.0657C368.747 -34.5868 366.182 -32.8966 363.766 -31.0114C361.312 -29.0956 358.705 -27.3779 355.971 -25.875C351.939 -23.6029 349.84 -22.5284 347.811 -21.4896C345.79 -20.4541 343.7 -19.3842 339.68 -17.1172C335.659 -14.8512 333.665 -13.6896 331.671 -12.5278C329.674 -11.3637 327.677 -10.2004 323.649 -7.93003C319.61 -5.6533 317.497 -4.60078 315.453 -3.58376C313.42 -2.57184 311.318 -1.52549 307.304 0.737312C303.268 3.01248 301.238 4.12374 299.206 5.23561C297.183 6.34372 295.156 7.45242 291.137 9.71842C287.098 11.9951 284.993 13.0631 282.958 14.0969C280.932 15.1235 278.84 16.185 274.825 18.448C272.135 19.927 269.571 21.6191 267.159 23.5079C264.708 25.4293 262.102 27.1497 259.366 28.652C256.674 30.1959 253.898 31.5934 251.051 32.8381C248.233 34.0702 245.486 35.4534 242.822 36.9816C238.814 39.2402 236.872 40.5532 234.994 41.8225C233.099 43.1033 231.14 44.4279 227.095 46.7077C224.401 48.2541 221.619 49.6443 218.76 50.8713C215.935 52.0847 213.185 53.4591 210.522 54.9876Z" fill="#3BBFEE"/>
<path d="M204.151 44.0411L203.61 43.1092C207.641 40.837 209.645 39.6886 211.652 38.5376C213.655 37.3894 215.661 36.2394 219.684 33.9718C222.377 32.4254 225.162 31.0394 228.024 29.8211C230.853 28.6174 233.606 27.2471 236.267 25.7177C238.955 24.2346 241.539 22.5755 244.001 20.7513C246.497 18.9025 249.116 17.2208 251.84 15.7172C255.881 13.439 257.99 12.3769 260.03 11.3486C262.057 10.3271 264.153 9.27112 268.168 7.00816C272.207 4.7316 274.302 3.64914 276.329 2.60202C278.345 1.56106 280.431 0.483564 284.446 -1.77942C288.475 -4.05018 290.498 -5.17007 292.521 -6.28995C294.544 -7.40842 296.566 -8.52705 300.591 -10.7971C304.604 -13.0599 306.582 -14.3185 308.495 -15.5353C310.419 -16.7605 312.409 -18.0277 316.449 -20.3044C320.473 -22.5722 322.489 -23.7015 324.504 -24.8305C326.519 -25.9596 328.534 -27.0876 332.558 -29.3564C336.571 -31.619 338.562 -32.8558 340.488 -34.0512C342.424 -35.2539 344.426 -36.4967 348.466 -38.7734C352.489 -41.041 354.48 -42.2116 356.47 -43.3822C358.465 -44.5546 360.461 -45.7272 364.493 -48.0004C368.517 -50.2692 370.513 -51.4302 372.51 -52.5925C374.51 -53.7559 376.509 -54.9196 380.541 -57.1917C384.576 -59.4656 386.661 -60.5623 388.679 -61.6216C390.69 -62.6778 392.769 -63.7698 396.79 -66.0373C400.822 -68.3094 402.906 -69.4069 404.923 -70.4682C406.933 -71.5273 409.014 -72.622 413.04 -74.8922C415.731 -76.434 418.5 -77.8399 421.337 -79.1047C424.145 -80.3564 426.887 -81.7482 429.551 -83.2745C432.241 -84.7575 434.821 -86.4276 437.27 -88.2721C439.755 -90.1442 442.373 -91.839 445.103 -93.3436C449.148 -95.6234 451.24 -96.7189 453.262 -97.778C455.276 -98.8324 457.357 -99.9229 461.379 -102.189C465.428 -104.472 467.557 -105.511 469.615 -106.516C471.658 -107.513 473.771 -108.543 477.788 -110.808L478.328 -109.876C474.284 -107.596 472.156 -106.559 470.099 -105.554C468.055 -104.556 465.942 -103.525 461.92 -101.257C457.884 -98.9834 455.795 -97.8895 453.774 -96.8306C451.759 -95.776 449.674 -94.6839 445.644 -92.4118C442.952 -90.929 440.372 -89.2584 437.922 -87.4125C435.437 -85.5415 432.821 -83.8473 430.092 -82.3426C427.4 -80.8009 424.631 -79.3948 421.795 -78.13C418.986 -76.8783 416.245 -75.4867 413.58 -73.9604C409.542 -71.6836 407.454 -70.5847 405.437 -69.5222C403.427 -68.4643 401.35 -67.3701 397.33 -65.1054C393.296 -62.8314 391.21 -61.7348 389.192 -60.6755C387.181 -59.6192 385.102 -58.5273 381.081 -56.2598C377.057 -53.991 375.061 -52.8303 373.063 -51.668C371.064 -50.5043 369.065 -49.3409 365.033 -47.0686C361.01 -44.801 359.019 -43.6305 357.029 -42.4599C355.034 -41.2873 353.038 -40.1149 349.006 -37.8415C344.987 -35.5768 342.995 -34.3401 341.068 -33.1432C339.134 -31.9419 337.133 -30.6983 333.098 -28.4245C329.074 -26.1568 327.058 -25.0274 325.043 -23.8983C323.027 -22.7693 321.013 -21.6414 316.989 -19.3726C312.976 -17.11 310.998 -15.8512 309.085 -14.6344C307.161 -13.4094 305.171 -12.1422 301.132 -9.86524C297.102 -7.59448 295.079 -6.47481 293.056 -5.35488C291.034 -4.23624 289.011 -3.1176 284.986 -0.84754C280.955 1.42478 278.86 2.50688 276.835 3.55259C274.817 4.59497 272.73 5.67264 268.709 7.94C264.672 10.2143 262.565 11.2761 260.526 12.3041C258.498 13.3258 256.401 14.3828 252.381 16.649C249.693 18.132 247.109 19.7911 244.647 21.6152C242.151 23.4641 239.532 25.1459 236.808 26.6495C234.114 28.197 231.328 29.5836 228.465 30.8019C225.638 32.0056 222.886 33.3753 220.225 34.9037C216.206 37.1697 214.202 38.3181 212.2 39.4649C210.192 40.6163 208.186 41.7671 204.151 44.0411Z" fill="#3BBFEE"/>
<path d="M197.243 32.1733L196.703 31.2414C199.4 29.686 202.209 28.3262 205.108 27.1728C207.964 26.0357 210.733 24.6954 213.392 23.1624C216.077 21.675 218.678 20.044 221.183 18.2765C223.716 16.4893 226.345 14.8403 229.061 13.3367C233.062 11.0803 235.068 9.93358 237.061 8.79328C239.08 7.63798 241.088 6.49012 245.14 4.20577C249.178 1.92938 251.283 0.862507 253.319 -0.169217C255.344 -1.19583 257.439 -2.25796 261.456 -4.52234C265.489 -6.7949 267.521 -7.90339 269.554 -9.01105C271.58 -10.1168 273.609 -11.2214 277.631 -13.4888C281.639 -15.7486 283.587 -17.0522 285.471 -18.313C287.372 -19.5851 289.337 -20.9002 293.384 -23.1813C296.076 -24.7246 298.85 -26.1251 301.694 -27.3768C304.508 -28.6151 307.252 -30.0006 309.916 -31.5278C313.937 -33.7941 315.934 -34.9509 317.932 -36.1066C319.932 -37.265 321.932 -38.4224 325.959 -40.6928C330.005 -42.9738 332.16 -43.9622 334.245 -44.9184C336.309 -45.8647 338.445 -46.8443 342.452 -49.1027C346.471 -51.3685 348.473 -52.5911 350.409 -53.7747C352.353 -54.9627 354.363 -56.1909 358.4 -58.4661C362.432 -60.7384 364.47 -61.8375 366.507 -62.9364C368.541 -64.0335 370.574 -65.1296 374.598 -67.3984C378.627 -69.6692 380.645 -70.7978 382.664 -71.9263C384.681 -73.0537 386.7 -74.1823 390.727 -76.4527C393.415 -77.9374 396.003 -79.5932 398.473 -81.4095C400.976 -83.2504 403.598 -84.9284 406.322 -86.4327C409.017 -87.9835 411.814 -89.3574 414.694 -90.5453C417.536 -91.7173 420.296 -93.0732 422.956 -94.6042C425.649 -96.0842 428.216 -97.7754 430.633 -99.6617C433.089 -101.579 435.698 -103.297 438.434 -104.801C441.133 -106.354 443.932 -107.732 446.813 -108.928C449.656 -110.109 452.419 -111.47 455.084 -113.003C459.105 -115.269 461.077 -116.545 462.984 -117.779C464.903 -119.021 466.887 -120.304 470.933 -122.585L471.473 -121.653C467.458 -119.389 465.487 -118.115 463.581 -116.881C461.661 -115.639 459.675 -114.354 455.624 -112.071C452.925 -110.518 450.126 -109.139 447.245 -107.943C444.401 -106.763 441.638 -105.402 438.974 -103.869C436.282 -102.389 433.714 -100.698 431.297 -98.8117C428.841 -96.8948 426.233 -95.1762 423.497 -93.6724C420.801 -92.1213 418.004 -90.7474 415.125 -89.5595C412.282 -88.3876 409.522 -87.0318 406.862 -85.5008C404.173 -84.016 401.586 -82.3603 399.116 -80.5439C396.613 -78.7029 393.992 -77.0251 391.267 -75.5209C387.238 -73.2501 385.22 -72.1215 383.201 -70.9928C381.184 -69.8656 379.165 -68.737 375.138 -66.4666C371.106 -64.1942 369.069 -63.0953 367.031 -61.9962C364.997 -60.8991 362.964 -59.803 358.94 -57.5342C354.921 -55.2684 352.919 -54.0458 350.983 -52.8624C349.039 -51.6742 347.029 -50.4462 342.992 -48.1708C338.946 -45.8909 336.791 -44.9014 334.706 -43.9452C332.642 -42.999 330.506 -42.0193 326.499 -39.7609C322.478 -37.4947 320.481 -36.3379 318.484 -35.1822C316.483 -34.0236 314.483 -32.8663 310.456 -30.5959C307.764 -29.0527 304.99 -27.6522 302.147 -26.4004C299.332 -25.1623 296.588 -23.7767 293.924 -22.2495C289.915 -19.9894 287.966 -18.6857 286.082 -17.4239C284.181 -16.153 282.215 -14.8377 278.171 -12.5569C274.143 -10.2865 272.111 -9.17889 270.081 -8.07283C268.051 -6.96551 266.023 -5.85983 261.996 -3.59049C257.959 -1.31409 255.854 -0.247015 253.818 0.784499C251.793 1.81111 249.698 2.87324 245.681 5.13763C241.631 7.41931 239.626 8.56705 237.608 9.72096C235.613 10.8627 233.607 12.0104 229.601 14.2686C226.915 15.756 224.314 17.387 221.809 19.1543C219.277 20.9416 216.648 22.5907 213.932 24.0943C211.235 25.6496 208.426 27.0093 205.527 28.1626C202.671 29.3 199.902 30.6403 197.243 32.1733Z" fill="#3BBFEE"/>
<path d="M190.67 20.884L190.13 19.9521C192.834 18.3842 195.679 17.0653 198.629 16.0118C201.527 14.9781 204.321 13.6832 206.976 12.1434C209.661 10.6547 212.265 9.02954 214.779 7.27449C217.319 5.49995 219.952 3.85735 222.666 2.35329C226.703 0.0766323 228.791 -1.01807 230.81 -2.07663C232.82 -3.13058 234.899 -4.2207 238.915 -6.48497C241.603 -7.97085 244.196 -9.61695 246.68 -11.4142C249.194 -13.2336 251.819 -14.9 254.54 -16.4042C257.238 -17.9611 260.053 -19.3152 262.958 -20.4551C265.821 -21.5772 268.594 -22.9109 271.252 -24.445C275.266 -26.7068 277.237 -27.977 279.142 -29.2054C281.062 -30.4425 283.045 -31.7204 287.086 -33.9985C291.113 -36.269 293.133 -37.3947 295.152 -38.5202C297.171 -39.6446 299.189 -40.77 303.216 -43.0392C307.247 -45.3116 309.329 -46.4118 311.342 -47.4747C313.349 -48.5342 315.422 -49.63 319.44 -51.8944C323.475 -54.1694 325.591 -55.2171 327.638 -56.2316C329.673 -57.2396 331.776 -58.2818 335.792 -60.5461C338.48 -62.0313 341.071 -63.681 343.549 -65.4858C346.058 -67.3139 348.682 -68.9848 351.403 -70.4888C355.437 -72.7625 357.518 -73.8657 359.53 -74.9337C361.537 -75.9977 363.612 -77.0978 367.634 -79.3652C371.671 -81.6404 373.77 -82.718 375.799 -83.7605C377.82 -84.7969 379.908 -85.8696 383.928 -88.1354C387.961 -90.4092 390.04 -91.5185 392.051 -92.5905C394.055 -93.6604 396.128 -94.7654 400.152 -97.0343C404.186 -99.3081 406.272 -100.406 408.288 -101.467C410.297 -102.525 412.374 -103.618 416.394 -105.884C420.413 -108.15 422.403 -109.392 424.329 -110.595C426.264 -111.804 428.265 -113.054 432.305 -115.332C434.997 -116.818 437.588 -118.476 440.06 -120.296C442.564 -122.14 445.188 -123.82 447.915 -125.326C450.622 -126.895 453.469 -128.219 456.421 -129.281C459.32 -130.324 462.117 -131.624 464.776 -133.166L465.317 -132.234C462.609 -130.664 459.761 -129.34 456.809 -128.278C453.911 -127.236 451.115 -125.936 448.455 -124.394C445.764 -122.908 443.174 -121.25 440.702 -119.43C438.197 -117.586 435.573 -115.906 432.846 -114.4C428.826 -112.134 426.836 -110.891 424.91 -109.689C422.975 -108.48 420.975 -107.23 416.934 -104.952C412.902 -102.68 410.818 -101.582 408.801 -100.521C406.792 -99.4629 404.714 -98.3697 400.693 -96.1024C396.659 -93.8285 394.58 -92.7193 392.569 -91.6475C390.565 -90.5776 388.492 -89.4724 384.468 -87.2035C380.431 -84.9283 378.332 -83.8507 376.303 -82.8083C374.283 -81.7718 372.194 -80.6992 368.175 -78.4333C364.141 -76.1595 362.06 -75.0564 360.048 -73.9882C358.041 -72.9245 355.966 -71.8244 351.944 -69.5569C349.256 -68.0716 346.665 -66.4219 344.187 -64.6172C341.677 -62.7891 339.054 -61.1182 336.332 -59.6142C332.292 -57.3362 330.175 -56.2875 328.128 -55.273C326.094 -54.266 323.991 -53.2238 319.98 -50.9625C315.951 -48.6917 313.869 -47.5926 311.857 -46.5288C309.85 -45.4691 307.775 -44.3732 303.756 -42.1073C299.729 -39.8368 297.709 -38.7112 295.69 -37.5856C293.671 -36.4612 291.653 -35.3359 287.627 -33.0666C283.614 -30.8049 281.644 -29.5358 279.739 -28.3075C277.82 -27.0705 275.835 -25.7915 271.792 -23.5131C269.094 -21.9558 266.279 -20.6017 263.373 -19.4623C260.51 -18.3401 257.738 -17.0064 255.08 -15.4723C252.393 -13.9864 249.8 -12.3404 247.316 -10.5433C244.801 -8.72378 242.176 -7.05731 239.456 -5.55306C235.426 -3.28103 233.34 -2.18754 231.322 -1.12934C229.31 -0.0750591 227.23 1.01631 223.206 3.28516C220.521 4.77396 217.916 6.39914 215.402 8.15421C212.862 9.92855 210.23 11.5711 207.516 13.0753C204.812 14.6432 201.967 15.9622 199.016 17.0157C196.119 18.0493 193.325 19.3442 190.67 20.884Z" fill="#3BBFEE"/>
<path d="M184.413 10.1293L183.872 9.19745C187.883 6.93644 189.84 5.64617 191.732 4.39869C193.64 3.14034 195.613 1.83985 199.656 -0.43956C202.358 -2.00445 205.195 -3.33031 208.135 -4.40175C211.024 -5.45553 213.813 -6.75916 216.469 -8.29754C220.482 -10.5591 222.455 -11.8256 224.363 -13.0489C226.284 -14.281 228.271 -15.5551 232.312 -17.833C234.998 -19.3206 237.597 -20.9546 240.098 -22.7277C242.629 -24.5223 245.26 -26.1759 247.978 -27.6807C250.678 -29.241 253.499 -30.5873 256.416 -31.7069C259.286 -32.8089 262.063 -34.1337 264.72 -35.669C268.737 -37.9333 270.753 -39.1317 272.704 -40.2911C274.661 -41.4539 276.684 -42.6576 280.722 -44.9331C284.761 -47.2097 286.873 -48.2642 288.917 -49.2854C290.947 -50.2992 293.047 -51.3482 297.062 -53.6111C301.08 -55.8759 303.093 -57.0778 305.04 -58.2409C306.992 -59.407 309.011 -60.6133 313.041 -62.8853C317.047 -65.1436 318.991 -66.4506 320.871 -67.7159C322.769 -68.993 324.732 -70.3129 328.78 -72.5942C332.826 -74.8754 334.98 -75.8698 337.061 -76.833C339.124 -77.7863 341.257 -78.7719 345.266 -81.0319C347.956 -82.5113 350.524 -84.195 352.948 -86.0678C355.411 -87.9717 358.021 -89.6828 360.754 -91.1856C364.798 -93.4652 366.934 -94.4864 368.998 -95.4741C371.047 -96.455 373.166 -97.4689 377.179 -99.7305C379.873 -101.276 382.652 -102.673 385.503 -103.914C388.324 -105.142 391.073 -106.524 393.738 -108.052C396.424 -109.54 399.025 -111.171 401.531 -112.938C404.064 -114.725 406.695 -116.375 409.41 -117.879C413.425 -120.142 415.386 -121.43 417.282 -122.676C419.192 -123.931 421.169 -125.23 425.216 -127.512C429.259 -129.791 431.365 -130.863 433.402 -131.898C435.428 -132.929 437.523 -133.996 441.546 -136.264C445.598 -138.547 447.753 -139.544 449.836 -140.509C451.901 -141.465 454.036 -142.453 458.05 -144.716L458.591 -143.784C454.54 -141.5 452.384 -140.503 450.301 -139.538C448.236 -138.582 446.101 -137.594 442.087 -135.332C438.044 -133.053 435.939 -131.982 433.902 -130.946C431.875 -129.915 429.78 -128.848 425.756 -126.58C421.742 -124.317 419.781 -123.029 417.885 -121.783C415.974 -120.528 413.998 -119.229 409.951 -116.947C407.265 -115.46 404.663 -113.828 402.157 -112.06C399.624 -110.274 396.994 -108.625 394.278 -107.12C391.584 -105.575 388.805 -104.178 385.953 -102.937C383.133 -101.709 380.384 -100.327 377.719 -98.7986C373.675 -96.5191 371.54 -95.4979 369.475 -94.5103C367.426 -93.5293 365.307 -92.5153 361.295 -90.2538C358.604 -88.7742 356.034 -87.09 353.609 -85.2161C351.147 -83.3132 348.539 -81.6027 345.807 -80.1C341.76 -77.8188 339.607 -76.8244 337.525 -75.8612C335.462 -74.908 333.33 -73.9224 329.32 -71.6624C325.311 -69.4026 323.366 -68.0941 321.485 -66.8286C319.587 -65.5528 317.624 -64.2329 313.582 -61.9535C309.563 -59.6889 307.551 -58.4868 305.604 -57.3237C303.652 -56.1576 301.632 -54.9513 297.602 -52.6793C293.565 -50.404 291.452 -49.3485 289.41 -48.3285C287.378 -47.3134 285.278 -46.2653 281.262 -44.0013C277.236 -41.7321 275.218 -40.5323 273.266 -39.3714C271.31 -38.21 269.289 -37.0086 265.261 -34.7372C262.561 -33.178 259.741 -31.8321 256.825 -30.7122C253.953 -29.6099 251.176 -28.2846 248.518 -26.7488C245.83 -25.2607 243.229 -23.6257 240.726 -21.8512C238.197 -20.0583 235.568 -18.4058 232.852 -16.9013C228.839 -14.6395 226.865 -13.3732 224.958 -12.1497C223.036 -10.9178 221.049 -9.64372 217.009 -7.36577C214.306 -5.80005 211.468 -4.47331 208.527 -3.40091C205.639 -2.34822 202.851 -1.04547 200.196 0.492215C196.187 2.75221 194.23 4.04249 192.337 5.2908C190.429 6.5482 188.457 7.84959 184.413 10.1293Z" fill="#3BBFEE"/>
</svg>
