<svg width="231" height="60" viewBox="0 0 231 60" fill="none" xmlns="http://www.w3.org/2000/svg">
<path d="M19.117 25.8773H25.7413V36.938C24.153 38.0673 22.3868 38.9182 20.5172 39.4547C18.6008 40.0319 16.6118 40.3273 14.6116 40.3317C12.0065 40.3726 9.43178 39.7635 7.11687 38.5589C4.95508 37.432 3.14649 35.7221 1.89281 33.6201C0.652492 31.4369 0 28.9651 0 26.4495C0 23.934 0.652492 21.4621 1.89281 19.2789C3.15397 17.1692 4.97711 15.4581 7.15512 14.3401C9.50947 13.1319 12.1216 12.5228 14.7634 12.5662C17.0457 12.5297 19.3118 12.9579 21.4259 13.8251C23.3308 14.6179 25.0184 15.8608 26.3463 17.4489L21.5778 21.7968C20.7844 20.8591 19.7976 20.1071 18.6862 19.5932C17.5747 19.0792 16.3654 18.8158 15.1425 18.8211C14.1313 18.7553 13.1177 18.9075 12.1695 19.2676C11.2213 19.6276 10.3602 20.1873 9.64369 20.9093C8.92716 21.6312 8.37169 22.4988 8.01432 23.4541C7.65694 24.4095 7.50588 25.4307 7.57123 26.4495C7.54705 27.8251 7.87266 29.1839 8.51706 30.3968C9.12844 31.5342 10.0477 32.4733 11.1679 33.1051C12.3601 33.7681 13.7044 34.1036 15.066 34.0779C16.4637 34.0865 17.8465 33.7868 19.117 33.1997V25.8773Z" fill="#1D1644"/>
<path d="M39.8788 19.4892C41.1659 18.9983 42.5341 18.7589 43.9101 18.7838V25.3051C43.3702 25.2368 42.8269 25.1986 42.2827 25.1906C40.9599 25.1122 39.66 25.5649 38.6675 26.4496C38.1991 26.9669 37.8414 27.5758 37.6167 28.2384C37.3919 28.9011 37.305 29.6032 37.3612 30.3011V39.7981H30.1689V19.1272H37.0204V21.6054C37.7672 20.6541 38.7546 19.9231 39.8788 19.4892Z" fill="#1D1644"/>
<path d="M63.2543 21.1288C65.0451 22.6926 65.9407 25.089 65.9411 28.3181V39.798H59.2415V37.1283C58.2064 39.137 56.1877 40.1414 53.1852 40.1414C51.7648 40.1765 50.3547 39.89 49.0588 39.3029C47.9832 38.8176 47.0695 38.0296 46.4277 37.0338C45.8276 36.0546 45.5191 34.9225 45.5387 33.772C45.5013 32.8845 45.6863 32.0019 46.0766 31.2055C46.467 30.4091 47.0501 29.7245 47.7722 29.215C49.2605 28.1336 51.5567 27.5933 54.6607 27.594H58.7489C58.6226 25.4067 57.1718 24.3132 54.3965 24.3136C53.3814 24.3184 52.373 24.479 51.406 24.79C50.4756 25.0674 49.6032 25.5135 48.8316 26.1062L46.4091 21.1861C47.682 20.3643 49.0833 19.7645 50.5541 19.4121C52.1554 18.9964 53.8023 18.7853 55.4559 18.7838C58.8625 18.7838 61.462 19.5655 63.2543 21.1288ZM57.3869 34.955C58.0307 34.5316 58.5113 33.899 58.7489 33.1624V31.3698H55.6448C53.5503 31.3698 52.5032 32.0689 52.5036 33.4672C52.4944 33.7607 52.5548 34.0522 52.6797 34.3175C52.8047 34.5827 52.9907 34.8141 53.2223 34.9924C53.7952 35.4029 54.4897 35.6047 55.1916 35.5646C55.9666 35.5807 56.7295 35.3688 57.387 34.955H57.3869Z" fill="#1D1644"/>
<path d="M89.9971 21.0716C91.5491 22.5968 92.3253 24.8979 92.3257 27.9748V39.798H85.1335V29.1578C85.1335 26.3351 84.0103 24.924 81.764 24.9244C81.2108 24.9002 80.6589 24.9968 80.1462 25.2074C79.6335 25.418 79.1719 25.7378 78.7932 26.1448C77.9751 27.1791 77.5759 28.4872 77.6759 29.806V39.7981H70.4836V19.1272H77.3351V21.3765C78.1467 20.5351 79.1276 19.8785 80.212 19.4507C81.37 18.9971 82.6034 18.7707 83.8457 18.7839C84.9707 18.732 86.0946 18.9078 87.1511 19.3007C88.2076 19.6936 89.1753 20.2958 89.9971 21.0716Z" fill="#1D1644"/>
<path d="M118.936 11.4988V39.7981H112.085V37.7391C111.327 38.5715 110.391 39.2201 109.349 39.6362C108.306 40.0522 107.184 40.2249 106.066 40.1414C104.277 40.1624 102.515 39.7084 100.956 38.8252C99.4123 37.9442 98.1461 36.6425 97.3029 35.0694C96.4198 33.3241 95.9595 31.393 95.9595 29.434C95.9595 27.475 96.4198 25.5439 97.3029 23.7986C98.1474 22.2361 99.4142 20.9468 100.956 20.0801C102.519 19.2096 104.28 18.7629 106.066 18.7838C107.108 18.7184 108.152 18.8747 109.13 19.2425C110.109 19.6103 110.999 20.1814 111.744 20.9186V11.4987L118.936 11.4988ZM110.646 33.0666C111.502 32.0554 111.936 30.7502 111.858 29.4241C111.933 28.1188 111.506 26.8344 110.665 25.8388C110.274 25.4121 109.795 25.0755 109.263 24.8518C108.731 24.628 108.157 24.5226 107.581 24.5425C107.001 24.5237 106.425 24.6295 105.89 24.8531C105.354 25.0766 104.873 25.4127 104.477 25.8388C103.624 26.829 103.189 28.1156 103.265 29.4241C103.187 30.7502 103.621 32.0554 104.477 33.0666C104.87 33.4978 105.35 33.8386 105.886 34.0657C106.422 34.2928 107 34.401 107.581 34.3827C108.155 34.3981 108.727 34.2885 109.256 34.0613C109.785 33.8342 110.259 33.4949 110.646 33.0666Z" fill="#1D1644"/>
<path d="M129.705 38.5403C127.516 37.3836 125.683 35.6456 124.404 33.5144C123.125 31.3832 122.448 28.9401 122.448 26.4496C122.448 23.959 123.125 21.5159 124.404 19.3847C125.683 17.2535 127.516 15.5155 129.705 14.3588C132.051 13.1799 134.636 12.5662 137.258 12.5662C139.879 12.5662 142.464 13.1799 144.81 14.3588C146.999 15.5155 148.832 17.2535 150.111 19.3847C151.391 21.5159 152.067 23.959 152.067 26.4496C152.067 28.9401 151.391 31.3832 150.111 33.5144C148.832 35.6456 146.999 37.3836 144.81 38.5403C142.464 39.7185 139.879 40.3317 137.258 40.3317C134.637 40.3317 132.051 39.7185 129.705 38.5403ZM140.892 33.1238C141.98 32.4848 142.871 31.5542 143.465 30.4355C144.088 29.2004 144.412 27.8348 144.412 26.4496C144.412 25.0644 144.088 23.6988 143.465 22.4638C142.871 21.3452 141.98 20.4147 140.892 19.7754C139.781 19.1497 138.53 18.8213 137.258 18.8213C135.985 18.8213 134.734 19.1497 133.623 19.7754C132.535 20.4143 131.644 21.3449 131.049 22.4638C130.427 23.699 130.103 25.0646 130.103 26.4496C130.103 27.8347 130.427 29.2002 131.049 30.4355C131.643 31.5545 132.535 32.4852 133.623 33.1238C134.734 33.7494 135.985 34.0779 137.258 34.0779C138.53 34.0779 139.781 33.7494 140.892 33.1238Z" fill="#1D1644"/>
<path d="M164.891 32.5516L162.771 34.7261V39.798H155.579V11.4988H162.771V26.3351L170.115 19.1272H178.632L170.115 27.9748L179.351 39.798H170.645L164.891 32.5516Z" fill="#1D1644"/>
<path d="M200.984 21.0716C202.536 22.5968 203.313 24.8979 203.313 27.9748V39.798H196.121V29.1578C196.121 26.3351 194.998 24.924 192.751 24.9244C192.198 24.9002 191.646 24.9968 191.133 25.2074C190.621 25.418 190.159 25.7378 189.78 26.1448C188.962 27.1792 188.563 28.4872 188.663 29.806V39.7981H181.471V19.1272H188.322V21.3765C189.134 20.5351 190.115 19.8785 191.199 19.4507C192.357 18.9971 193.591 18.7707 194.833 18.7839C195.958 18.732 197.082 18.9078 198.138 19.3007C199.195 19.6936 200.162 20.2958 200.984 21.0716Z" fill="#1D1644"/>
<path d="M212.473 38.768C210.751 37.9093 209.306 36.575 208.307 34.9206C207.309 33.2663 206.798 31.36 206.833 29.4241C206.803 27.499 207.315 25.6049 208.31 23.9612C209.305 22.3176 210.742 20.9917 212.455 20.1373C214.321 19.2461 216.36 18.7838 218.426 18.7838C220.491 18.7838 222.531 19.2461 224.397 20.1373C226.097 20.9797 227.528 22.2884 228.523 23.913C229.283 25.1452 229.78 26.523 229.983 27.959C230.185 29.395 230.09 30.8578 229.702 32.2546C229.314 33.6514 228.642 34.9517 227.729 36.073C226.815 37.1942 225.681 38.112 224.397 38.768C222.537 39.6719 220.5 40.1414 218.435 40.1414C216.371 40.1414 214.333 39.6719 212.473 38.768H212.473ZM221.52 33.0666C222.375 32.0554 222.809 30.7502 222.731 29.4241C222.807 28.1155 222.372 26.829 221.52 25.8388C221.113 25.4279 220.629 25.1019 220.096 24.8794C219.563 24.657 218.992 24.5425 218.416 24.5425C217.839 24.5425 217.268 24.657 216.736 24.8794C216.203 25.1019 215.719 25.4279 215.312 25.8388C214.459 26.829 214.025 28.1155 214.101 29.4241C214.023 30.7502 214.457 32.0554 215.312 33.0666C215.716 33.4832 216.199 33.8143 216.732 34.0403C217.265 34.2663 217.838 34.3827 218.416 34.3827C218.994 34.3827 219.567 34.2663 220.1 34.0403C220.633 33.8143 221.116 33.4832 221.52 33.0666Z" fill="#1D1644"/>
<path d="M20.9339 58.1146C20.209 57.9162 19.5328 57.5682 18.9484 57.0927L19.696 55.4017C20.2241 55.8087 20.8166 56.123 21.4485 56.3313C22.119 56.567 22.8237 56.6886 23.5338 56.691C24.2055 56.7365 24.8764 56.5917 25.4706 56.2729C25.6648 56.162 25.8263 56.0012 25.9387 55.8069C26.0511 55.6127 26.1104 55.3918 26.1104 55.1669C26.1144 55.0109 26.0844 54.8559 26.0225 54.7129C25.9606 54.5698 25.8684 54.4422 25.7523 54.3389C25.4894 54.1067 25.181 53.9328 24.847 53.8286C24.4819 53.7059 23.9835 53.5662 23.3518 53.4093C22.6213 53.2446 21.9023 53.0319 21.1993 52.7728C20.6541 52.5638 20.169 52.2215 19.7876 51.7767C19.3721 51.2608 19.1618 50.6077 19.1976 49.9443C19.192 49.3158 19.3741 48.7002 19.7203 48.1774C20.1143 47.6113 20.6627 47.1724 21.299 46.9138C22.1193 46.5796 22.9994 46.4201 23.8838 46.4454C24.59 46.445 25.2934 46.5349 25.9771 46.7129C26.6086 46.8674 27.2097 47.128 27.7552 47.4837L27.0736 49.1735C26.5736 48.8767 26.0375 48.6463 25.4787 48.488C24.9545 48.3358 24.412 48.2569 23.8664 48.2533C23.2036 48.2057 22.5416 48.3573 21.9643 48.6889C21.7707 48.8112 21.6116 48.9818 21.5023 49.1841C21.3931 49.3864 21.3375 49.6136 21.3407 49.8439C21.3363 49.9986 21.366 50.1525 21.4277 50.2943C21.4895 50.436 21.5817 50.5622 21.6977 50.6637C21.963 50.8912 22.2714 51.062 22.6042 51.1659C22.9693 51.2885 23.4677 51.4283 24.0994 51.5851C24.8221 51.7439 25.5328 51.9534 26.2264 52.2123C26.7723 52.425 27.2596 52.7667 27.6474 53.2084C28.0612 53.7157 28.2717 54.3606 28.2374 55.0163C28.2438 55.6425 28.061 56.2559 27.7135 56.7751C27.3154 57.3386 26.7645 57.7745 26.1267 58.0305C25.3034 58.3641 24.4208 58.5235 23.5338 58.4988C22.6531 58.5011 21.7769 58.3716 20.9339 58.1146Z" fill="#19ADE2"/>
<path d="M39.935 56.5064V58.3318H31.2116V46.6124H39.702V48.4378H33.371V51.4847H38.988V53.2761H33.371V56.5064L39.935 56.5064Z" fill="#19ADE2"/>
<path d="M50.7854 58.3318L48.4092 54.8995C48.26 54.9128 48.1103 54.9182 47.9606 54.9158H45.3352V58.3318H43.1758V46.6124H47.9606C48.8641 46.5917 49.7617 46.7628 50.5952 47.1146C51.2975 47.4117 51.896 47.9131 52.3142 48.5546C52.7247 49.2219 52.9326 49.9956 52.9123 50.7805C52.9336 51.5873 52.7108 52.3815 52.2736 53.0578C51.823 53.7132 51.1808 54.2108 50.4364 54.4814L53.1128 58.3318H50.7854ZM50.0053 49.0567C49.3806 48.6132 48.6233 48.4004 47.861 48.4541H45.3353V53.1255H47.861C48.6247 53.1794 49.3831 52.9629 50.0053 52.5136C50.2509 52.3006 50.4446 52.0334 50.5712 51.7329C50.6978 51.4323 50.7541 51.1064 50.7355 50.7805C50.7545 50.4558 50.6985 50.1311 50.5718 49.832C50.445 49.5329 50.2511 49.2675 50.0053 49.0567Z" fill="#19ADE2"/>
<path d="M66.7879 46.6124L61.7191 58.3318H59.5922L54.5072 46.6124H56.8509L60.7223 55.6527L64.6272 46.6124H66.7879Z" fill="#19ADE2"/>
<path d="M68.8488 46.6124H71.0081V58.3318H68.8488V46.6124Z" fill="#19ADE2"/>
<path d="M77.1815 57.721C76.2575 57.2233 75.4872 56.4791 74.9549 55.5698C74.4254 54.6242 74.1479 53.5567 74.1493 52.471C74.1507 51.3853 74.431 50.3185 74.963 49.3744C75.4996 48.4657 76.2723 47.7219 77.1977 47.2232C78.1762 46.697 79.2711 46.4294 80.38 46.4454C81.2745 46.4339 82.162 46.6047 82.9892 46.9476C83.7576 47.2692 84.4405 47.768 84.9828 48.4039L83.5873 49.7271C83.1978 49.2864 82.7186 48.9356 82.1823 48.6986C81.646 48.4616 81.0652 48.3439 80.4797 48.3537C79.7318 48.3415 78.9934 48.5233 78.3354 48.8815C77.7168 49.2211 77.2051 49.7284 76.8581 50.346C76.5089 50.9994 76.3261 51.73 76.3261 52.4721C76.3261 53.2142 76.5089 53.9447 76.8581 54.5981C77.2051 55.2158 77.7168 55.7231 78.3354 56.0626C78.9932 56.4214 79.7318 56.6033 80.4797 56.5905C81.0667 56.5998 81.6488 56.4803 82.1854 56.2404C82.722 56.0004 83.2004 55.6456 83.5873 55.2008L84.9828 56.5403C84.4384 57.178 83.7521 57.677 82.9799 57.9966C82.1497 58.339 81.2597 58.5098 80.3627 58.4988C79.2541 58.5149 78.1595 58.2473 77.1815 57.721Z" fill="#19ADE2"/>
<path d="M96.6132 56.5064V58.3318H87.8898V46.6124H96.3802V48.4378H90.0492V51.4847H95.6662V53.2761H90.0492V56.5064L96.6132 56.5064Z" fill="#19ADE2"/>
<path d="M226.871 46.6128H102.106V48.4284H226.871V46.6128Z" fill="#19ADE2"/>
<path d="M16.7357 46.6128H0V48.4284H16.7357V46.6128Z" fill="#19ADE2"/>
</svg>
